<svg width="100" height="22" viewBox="0 0 100 22" fill="none" xmlns="http://www.w3.org/2000/svg">
<path fill-rule="evenodd" clip-rule="evenodd" d="M10.4596 0.00157232C8.28741 0.00157232 6.11145 0.0140035 3.93932 0.0367932C1.54899 0.0614475 0.021525 1.67682 0.012347 4.07554C-0.00373014 8.35482 -0.0044967 12.6455 0.012347 16.93C0.0222915 19.3968 1.56814 20.9167 4.04345 20.9275C6.01938 20.9366 7.99315 20.9356 9.96575 20.9343C10.623 20.9339 11.2809 20.9335 11.9381 20.9335C12.7148 20.9335 13.4919 20.9316 14.2695 20.9298C16.2145 20.9252 18.1624 20.9204 20.1067 20.9451C20.7382 20.9534 20.9373 20.7974 20.9342 20.141C20.9197 17.2099 20.9197 14.2795 20.9197 11.3494C20.9197 8.92332 20.9197 6.49601 20.9114 4.07036C20.9114 1.66853 19.3824 0.05979 16.9959 0.0353429C14.8145 0.0131748 12.6516 0.00012207 10.4696 0.00012207L10.4596 0.00157232ZM10.471 6.07855C11.7856 6.07855 13.0964 6.08248 14.4095 6.08994C15.59 6.09699 16.1024 6.55775 16.1107 7.54102C16.12 8.52243 15.5196 9.05074 14.3513 9.06151C13.4764 9.06918 12.6002 9.06669 11.7251 9.064C11.2877 9.06276 10.8504 9.06151 10.4136 9.06151H10.4083C10.0584 9.06151 9.70826 9.06213 9.35807 9.06296C8.42388 9.06462 7.48907 9.06649 6.5563 9.0553C5.44382 9.0408 4.86577 8.51705 4.8604 7.5692C4.85503 6.58158 5.37107 6.09699 6.5272 6.08932C7.84028 6.08166 9.15642 6.07855 10.471 6.07855ZM10.8226 11.8698C10.7016 11.8698 10.5806 11.8698 10.4596 11.8698C9.12808 11.8698 7.79894 11.8698 6.46749 11.876C5.39865 11.8806 4.81293 12.4578 4.83054 13.4257C4.84662 14.3483 5.39865 14.8605 6.46212 14.8766C7.39513 14.8907 8.32889 14.8878 9.26235 14.8851C9.64414 14.8839 10.0259 14.8826 10.4074 14.8826H10.4128C10.8007 14.8826 11.1887 14.8839 11.5767 14.8849C12.5358 14.8876 13.495 14.8903 14.4516 14.8766C15.5127 14.8613 16.0663 14.3491 16.0831 13.4317C16.1015 12.4648 15.5167 11.8814 14.4516 11.876C13.2412 11.8698 12.0328 11.8698 10.8226 11.8698Z" fill="#AA0024"/>
<path fill-rule="evenodd" clip-rule="evenodd" d="M64.8413 16.0616C64.8408 15.5857 64.8406 15.1096 64.8406 14.6339C64.8406 14.1622 64.8419 13.6907 64.8431 13.2189C64.8466 11.947 64.8502 10.6745 64.8284 9.40288C64.8207 8.91518 64.9685 8.76519 65.4485 8.78963C66.0425 8.82009 66.6379 8.8118 67.2331 8.80351C67.3722 8.80144 67.5116 8.79958 67.6504 8.79812C68.8226 8.78507 69.3227 8.34026 69.3142 7.33337C69.3066 6.37475 68.7516 5.90011 67.6023 5.88643C67.2045 5.88146 66.807 5.88229 66.4094 5.88312C66.0729 5.88395 65.7365 5.88457 65.4002 5.88188C65.3623 5.88125 65.3232 5.88394 65.2836 5.88664C65.1419 5.89617 64.996 5.90591 64.8895 5.77311C64.4638 5.2448 64.9937 3.37128 65.6331 3.10858C66.381 2.80091 67.0516 3.03358 67.7438 3.3344C68.8433 3.81215 69.7437 3.14545 69.642 1.96868C69.5691 1.12629 68.887 0.46787 67.802 0.173054C65.1017 -0.56036 61.7068 1.04984 61.9074 4.76704C61.9111 4.83583 61.9173 4.90606 61.9236 4.97629C61.9685 5.48077 62.0128 5.98132 61.0874 5.90943C60.0154 5.82594 59.3485 6.47296 59.351 7.35326C59.3539 8.26837 59.9643 8.82879 61.0828 8.77969C61.7856 8.7484 61.9372 8.96656 61.9296 9.64114C61.8977 12.4917 61.9051 15.3439 61.9126 18.197L61.9159 19.4567C61.9182 20.5843 62.4226 21.1578 63.3736 21.1626C64.3598 21.1671 64.8361 20.632 64.839 19.4942C64.8429 18.3499 64.8421 17.2057 64.8413 16.0616ZM29.0252 0.283066C29.7014 0.278301 30.3749 0.273536 31.052 0.273536C31.8169 0.274158 32.5833 0.276436 33.3473 0.280373C35.8778 0.289489 37.8127 1.37822 38.8424 3.69427C39.8325 5.91627 39.4772 8.05622 37.8462 9.91068C37.5232 10.2774 37.6548 10.4365 37.9221 10.7145C39.8424 12.7175 40.2711 15.087 39.1747 17.5616C38.1058 19.9696 36.1167 21.2154 33.4109 21.1808C32.5808 21.1702 31.75 21.1723 30.9192 21.1744C30.128 21.1765 29.3368 21.1783 28.546 21.1694C27.393 21.1555 26.9428 20.7031 26.9383 19.5379C26.9306 17.5811 26.9331 15.6234 26.9356 13.6666C26.9368 12.6883 26.9383 11.7104 26.9383 10.733V10.7268C26.9383 9.76814 26.9376 8.80932 26.937 7.8507C26.9358 5.93367 26.9345 4.01705 26.9383 2.10251C26.9405 0.755847 27.4038 0.294875 28.7618 0.284931L29.0252 0.283066ZM31.8654 3.1382C31.3953 3.14193 30.9254 3.14566 30.4555 3.13012C29.9519 3.11334 29.827 3.32156 29.8431 3.77776C29.8618 4.28825 29.8574 4.79978 29.8531 5.3113C29.851 5.53402 29.8491 5.75715 29.8491 5.97987C29.8491 6.19368 29.8514 6.4077 29.8537 6.62171C29.8593 7.14173 29.8649 7.66216 29.8377 8.18177C29.8108 8.69247 29.9656 8.88535 30.5015 8.86318C31.0924 8.83873 31.6849 8.84246 32.2775 8.84619C32.6647 8.84868 33.0517 8.85096 33.4385 8.84557C35.2109 8.82175 36.3556 7.72846 36.3923 6.04327C36.4283 4.47907 35.2538 3.24718 33.5732 3.15913C33.004 3.12929 32.4347 3.13385 31.8654 3.1382ZM31.7562 11.7801C32.4111 11.774 33.0656 11.7682 33.7194 11.807C35.4873 11.9112 36.8501 13.3422 36.8487 15.0067C36.8478 16.6483 35.5472 18.0623 33.8075 18.1987C33.1147 18.253 32.419 18.249 31.7229 18.2451C31.2915 18.2426 30.8597 18.2401 30.4288 18.2515C29.9931 18.2629 29.8346 18.1061 29.846 17.6689C29.8628 17.0492 29.8591 16.4302 29.8553 15.8103C29.8539 15.5462 29.8522 15.282 29.8522 15.0174C29.8522 14.7543 29.8537 14.491 29.8551 14.2277C29.8587 13.6051 29.8622 12.9821 29.846 12.3606C29.8346 11.9257 29.9908 11.7689 30.4288 11.778H30.4265C30.8695 11.7879 31.3131 11.784 31.7562 11.7801ZM46.7889 5.62145C44.0595 5.67739 41.255 8.09227 41.4342 11.4426C41.5075 12.8162 41.4777 14.1989 41.4342 15.5747C41.3683 17.6221 42.2494 19.1604 43.8528 20.3463C46.152 22.0499 50.053 21.6364 51.7144 19.5186C52.3515 18.7056 52.3415 18.0265 51.6854 17.4039C51.0406 16.793 50.3118 16.8327 49.5821 17.515C48.4559 18.5677 47.184 18.802 45.9813 18.185C44.7057 17.5303 44.2004 16.4836 44.3206 14.9103C44.3595 14.4102 44.6123 14.3942 44.979 14.3973C45.6316 14.4034 46.2832 14.4013 46.9356 14.3992H46.9379C47.2636 14.3984 47.5897 14.3973 47.916 14.3973H49.5705C52.5 14.3973 52.7557 14.1309 52.6171 11.1977C52.4631 7.91451 49.9878 5.55557 46.7889 5.62145ZM47.0806 8.55241C48.4764 8.57541 49.5606 9.58665 49.6557 10.9051C49.6878 11.3516 49.5446 11.5093 49.1021 11.4939C48.61 11.4774 48.1163 11.4809 47.623 11.4846C47.4134 11.4863 47.2029 11.4877 46.9934 11.4877C46.7893 11.4877 46.5851 11.4859 46.3806 11.4838C45.9128 11.4792 45.4441 11.4747 44.9775 11.4939C44.5075 11.513 44.3268 11.3845 44.3771 10.8699C44.5112 9.50171 45.6221 8.52797 47.0806 8.55241ZM87.8864 11.8752C87.8864 12.3009 87.8912 12.7267 87.8957 13.1526C87.9063 14.104 87.9167 15.0556 87.875 16.0044C87.7747 18.2805 86.6713 19.9957 84.6034 20.9167C82.4343 21.8821 80.3525 21.5568 78.5449 19.9605C77.4147 18.9636 76.7777 17.6857 76.7586 16.1758C76.7211 13.2396 76.7294 10.3027 76.7447 7.36321C76.7493 6.4568 77.3213 5.88415 78.1374 5.86261C78.9798 5.84044 79.5968 6.43836 79.6036 7.38392C79.6127 8.61664 79.6102 9.84956 79.6079 11.0829C79.6053 12.6034 79.6023 14.1243 79.6206 15.6452C79.645 17.6894 81.3194 18.9605 83.1248 18.3663C84.2894 17.9836 84.9157 17.1213 84.9242 15.79C84.9347 14.1649 84.9333 12.5398 84.9318 10.9143C84.931 9.93906 84.9302 8.96366 84.9318 7.98806V7.95222C84.9324 7.65906 84.9333 7.36093 84.9861 7.07543C85.1378 6.25625 85.7058 5.85121 86.4844 5.88333C87.2616 5.91544 87.8452 6.35341 87.8665 7.19415C87.8947 8.2951 87.8887 9.39729 87.8829 10.4993C87.8804 10.9571 87.8779 11.4158 87.8779 11.8737L87.8864 11.8752ZM95.0069 5.597C96.2832 5.64983 97.6798 6.30141 98.7776 7.57225C99.3405 8.22383 99.3357 9.23299 98.7838 9.72525C98.0809 10.3524 97.2517 10.3348 96.6118 9.55909C95.8843 8.67796 95.0001 8.39848 93.9228 8.59592C93.3348 8.70324 92.8977 9.03245 92.7642 9.63182C92.6341 10.2206 92.9619 10.6134 93.4351 10.9167C94.108 11.3485 94.8431 11.6448 95.5887 11.9158C96.2801 12.1669 96.9347 12.4878 97.565 12.8653C99.1667 13.8253 99.8833 15.2395 99.7455 17.0901C99.6092 18.9298 98.5634 20.1341 96.9563 20.8638C94.7956 21.8454 91.9504 21.3876 90.4382 19.8824C89.6528 19.1005 89.5219 18.2646 90.0823 17.6084C90.7347 16.8443 91.5775 16.8535 92.3861 17.6329C93.4059 18.6159 94.9908 18.779 96.075 18.0126C97.1361 17.2622 97.1438 16.1053 96.0718 15.3819C95.4344 14.9513 94.7237 14.6743 94.0129 14.3971C93.7856 14.3087 93.5581 14.2198 93.3331 14.1262C91.7783 13.4771 90.3502 12.6898 89.9406 10.8347C89.3083 7.97128 91.4337 5.57318 95.0069 5.597ZM57.722 13.1224C57.7211 12.3239 57.7203 11.5252 57.7201 10.7268C57.7197 9.81475 57.7207 8.90255 57.7218 7.99054C57.724 5.90591 57.7263 3.82148 57.711 1.73726C57.7039 0.797907 57.0785 0.218219 56.2232 0.242874C55.4117 0.265871 54.8474 0.797906 54.8467 1.62787C54.8366 7.68412 54.836 13.735 54.849 19.789C54.8505 20.6326 55.3259 21.0714 56.159 21.1189C57.175 21.1771 57.7116 20.6235 57.717 19.4399C57.7265 17.3341 57.7242 15.2281 57.722 13.1224ZM74.0282 13.4831C74.0282 14.0634 74.0288 14.6437 74.0292 15.2238C74.0303 16.6322 74.0315 18.0408 74.0259 19.449C74.0214 20.6303 73.5765 21.1464 72.5943 21.1472C71.6204 21.1479 71.141 20.6212 71.138 19.4521C71.1258 15.5051 71.1273 11.5582 71.1372 7.61513C71.1403 6.51273 71.6945 5.87649 72.5904 5.87566C73.4976 5.87483 74.0222 6.49802 74.0259 7.61223C74.0315 8.99888 74.0303 10.3859 74.0292 11.7728C74.0288 12.3438 74.0282 12.9152 74.0282 13.4862V13.4831ZM72.3415 4.16747C73.5047 4.30918 74.0305 3.68598 74.0282 2.07496C74.081 1.31482 73.9654 0.548255 72.9732 0.296325C72.0538 0.0636633 71.3133 0.560479 71.1571 1.48698C70.8992 3.01742 71.3548 4.04647 72.3415 4.16747Z" fill="#2D3C49"/>
</svg>
