<svg width="100" height="98" viewBox="0 0 100 98" fill="none" xmlns="http://www.w3.org/2000/svg">
<path fill-rule="evenodd" clip-rule="evenodd" d="M10.4596 37.8041C8.28741 37.8041 6.11145 37.8166 3.93932 37.8393C1.54899 37.864 0.021525 39.4794 0.012347 41.8781C-0.00373014 46.1574 -0.0044967 50.4481 0.012347 54.7325C0.0222915 57.1994 1.56814 58.7193 4.04345 58.73C6.01938 58.7392 7.99315 58.7381 9.96575 58.7369C10.623 58.7365 11.2809 58.736 11.9381 58.736C12.7148 58.736 13.4919 58.7342 14.2695 58.7323C16.2145 58.7278 18.1624 58.723 20.1067 58.7476C20.7382 58.7559 20.9373 58.5999 20.9342 57.9436C20.9197 55.0124 20.9197 52.0821 20.9197 49.1519C20.9197 46.7259 20.9197 44.2986 20.9114 41.8729C20.9114 39.4711 19.3824 37.8623 16.9959 37.8379C14.8145 37.8157 12.6516 37.8027 10.4696 37.8027L10.4596 37.8041ZM10.471 43.8811C11.7856 43.8811 13.0964 43.885 14.4095 43.8925C15.59 43.8995 16.1024 44.3603 16.1107 45.3436C16.12 46.325 15.5196 46.8533 14.3513 46.8641C13.4764 46.8717 12.6002 46.8692 11.7251 46.8666C11.2877 46.8653 10.8504 46.8641 10.4136 46.8641H10.4083C10.0584 46.8641 9.70826 46.8647 9.35807 46.8655C8.42388 46.8672 7.48907 46.869 6.5563 46.8578C5.44382 46.8433 4.86577 46.3196 4.8604 45.3718C4.85503 44.3841 5.37107 43.8995 6.5272 43.8919C7.84028 43.8842 9.15642 43.8811 10.471 43.8811ZM10.8226 49.6724C10.7016 49.6724 10.5806 49.6724 10.4596 49.6724C9.12808 49.6724 7.79894 49.6724 6.46749 49.6786C5.39865 49.6831 4.81293 50.2603 4.83054 51.2283C4.84662 52.1509 5.39865 52.663 6.46212 52.6792C7.39513 52.6933 8.32889 52.6904 9.26235 52.6877C9.64414 52.6864 10.0259 52.6852 10.4074 52.6852H10.4128C10.8007 52.6852 11.1887 52.6864 11.5767 52.6875C12.5358 52.6901 13.495 52.6928 14.4516 52.6792C15.5127 52.6638 16.0663 52.1517 16.0831 51.2343C16.1015 50.2674 15.5167 49.684 14.4516 49.6786C13.2412 49.6724 12.0328 49.6724 10.8226 49.6724Z" fill="#AA0024"/>
<path fill-rule="evenodd" clip-rule="evenodd" d="M64.8413 53.8642C64.8408 53.3883 64.8406 52.9122 64.8406 52.4365C64.8406 51.9648 64.8419 51.4932 64.8431 51.0215C64.8466 49.7496 64.8502 48.4771 64.8284 47.2054C64.8207 46.7177 64.9685 46.5677 65.4485 46.5922C66.0425 46.6226 66.6379 46.6144 67.2331 46.6061C67.3722 46.604 67.5116 46.6021 67.6504 46.6007C68.8226 46.5876 69.3227 46.1428 69.3142 45.1359C69.3066 44.1773 68.7516 43.7027 67.6023 43.689C67.2045 43.684 66.807 43.6848 66.4094 43.6857C66.0729 43.6865 65.7365 43.6871 65.4002 43.6844C65.3623 43.6838 65.3232 43.6865 65.2836 43.6892C65.1419 43.6987 64.996 43.7085 64.8895 43.5757C64.4638 43.0474 64.9937 41.1738 65.6331 40.9111C66.381 40.6035 67.0516 40.8361 67.7438 41.137C68.8433 41.6147 69.7437 40.948 69.642 39.7712C69.5691 38.9288 68.887 38.2704 67.802 37.9756C65.1017 37.2422 61.7068 38.8524 61.9074 42.5696C61.9111 42.6384 61.9173 42.7086 61.9236 42.7788C61.9685 43.2833 62.0128 43.7839 61.0874 43.712C60.0154 43.6285 59.3485 44.2755 59.351 45.1558C59.3539 46.0709 59.9643 46.6313 61.0828 46.5822C61.7856 46.551 61.9372 46.7691 61.9296 47.4437C61.8977 50.2943 61.9051 53.1465 61.9126 55.9996L61.9159 57.2592C61.9182 58.3869 62.4226 58.9604 63.3736 58.9651C64.3598 58.9697 64.8361 58.4345 64.839 57.2967C64.8429 56.1525 64.8421 55.0082 64.8413 53.8642ZM29.0252 38.0856C29.7014 38.0809 30.3749 38.0761 31.052 38.0761C31.8169 38.0767 32.5833 38.079 33.3473 38.0829C35.8778 38.092 37.8127 39.1808 38.8424 41.4968C39.8325 43.7188 39.4772 45.8588 37.8462 47.7132C37.5232 48.0799 37.6548 48.2391 37.9221 48.5171C39.8424 50.5201 40.2711 52.8896 39.1747 55.3641C38.1058 57.7722 36.1167 59.018 33.4109 58.9834C32.5808 58.9728 31.75 58.9749 30.9192 58.9769C30.128 58.979 29.3368 58.9809 28.546 58.972C27.393 58.9581 26.9428 58.5056 26.9383 57.3404C26.9306 55.3836 26.9331 53.426 26.9356 51.4692C26.9368 50.4909 26.9383 49.513 26.9383 48.5355V48.5293C26.9383 47.5707 26.9376 46.6119 26.937 45.6532C26.9358 43.7362 26.9345 41.8196 26.9383 39.9051C26.9405 38.5584 27.4038 38.0974 28.7618 38.0875L29.0252 38.0856ZM31.8654 40.9408C31.3953 40.9445 30.9254 40.9482 30.4555 40.9327C29.9519 40.9159 29.827 41.1241 29.8431 41.5803C29.8618 42.0908 29.8574 42.6023 29.8531 43.1139C29.851 43.3366 29.8491 43.5597 29.8491 43.7824C29.8491 43.9962 29.8514 44.2102 29.8537 44.4243C29.8593 44.9443 29.8649 45.4647 29.8377 45.9843C29.8108 46.495 29.9656 46.6879 30.5015 46.6657C31.0924 46.6413 31.6849 46.645 32.2775 46.6487C32.6647 46.6512 33.0517 46.6535 33.4385 46.6481C35.2109 46.6243 36.3556 45.531 36.3923 43.8458C36.4283 42.2816 35.2538 41.0497 33.5732 40.9617C33.004 40.9318 32.4347 40.9364 31.8654 40.9408ZM31.7562 49.5826C32.4111 49.5766 33.0656 49.5708 33.7194 49.6095C35.4873 49.7138 36.8501 51.1447 36.8487 52.8092C36.8478 54.4509 35.5472 55.8649 33.8075 56.0012C33.1147 56.0555 32.419 56.0516 31.7229 56.0476C31.2915 56.0451 30.8597 56.0427 30.4288 56.0541C29.9931 56.0654 29.8346 55.9086 29.846 55.4715C29.8628 54.8518 29.8591 54.2327 29.8553 53.6129C29.8539 53.3487 29.8522 53.0846 29.8522 52.82C29.8522 52.5569 29.8537 52.2935 29.8551 52.0302C29.8587 51.4076 29.8622 50.7847 29.846 50.1631C29.8346 49.7283 29.9908 49.5714 30.4288 49.5805H30.4265C30.8695 49.5905 31.3131 49.5865 31.7562 49.5826ZM46.7889 43.424C44.0595 43.4799 41.255 45.8948 41.4342 49.2451C41.5075 50.6187 41.4777 52.0014 41.4342 53.3773C41.3683 55.4246 42.2494 56.9629 43.8528 58.1488C46.152 59.8525 50.053 59.4389 51.7144 57.3212C52.3515 56.5082 52.3415 55.8291 51.6854 55.2065C51.0406 54.5955 50.3118 54.6353 49.5821 55.3175C48.4559 56.3702 47.184 56.6045 45.9813 55.9875C44.7057 55.3329 44.2004 54.2862 44.3206 52.7129C44.3595 52.2127 44.6123 52.1968 44.979 52.1999C45.6316 52.2059 46.2832 52.2038 46.9356 52.2018H46.9379C47.2636 52.2009 47.5897 52.1999 47.916 52.1999H49.5705C52.5 52.1999 52.7557 51.9335 52.6171 49.0002C52.4631 45.7171 49.9878 43.3581 46.7889 43.424ZM47.0806 46.355C48.4764 46.378 49.5606 47.3892 49.6557 48.7077C49.6878 49.1542 49.5446 49.3118 49.1021 49.2965C48.61 49.2799 48.1163 49.2834 47.623 49.2872C47.4134 49.2888 47.2029 49.2903 46.9934 49.2903C46.7893 49.2903 46.5851 49.2884 46.3806 49.2863C45.9128 49.2818 45.4441 49.2772 44.9775 49.2965C44.5075 49.3156 44.3268 49.1871 44.3771 48.6725C44.5112 47.3043 45.6221 46.3305 47.0806 46.355ZM87.8864 49.6777C87.8864 50.1035 87.8912 50.5292 87.8957 50.9552C87.9063 51.9065 87.9167 52.8581 87.875 53.807C87.7747 56.0831 86.6713 57.7983 84.6034 58.7192C82.4343 59.6847 80.3525 59.3594 78.5449 57.7631C77.4147 56.7661 76.7777 55.4882 76.7586 53.9783C76.7211 51.0422 76.7294 48.1052 76.7447 45.1658C76.7493 44.2593 77.3213 43.6867 78.1374 43.6652C78.9798 43.643 79.5968 44.2409 79.6036 45.1865C79.6127 46.4192 79.6102 47.6521 79.6079 48.8854C79.6053 50.4059 79.6023 51.9268 79.6206 53.4477C79.645 55.492 81.3194 56.763 83.1248 56.1688C84.2894 55.7862 84.9157 54.9239 84.9242 53.5926C84.9347 51.9674 84.9333 50.3423 84.9318 48.7168C84.931 47.7416 84.9302 46.7662 84.9318 45.7906V45.7548C84.9324 45.4616 84.9333 45.1635 84.9861 44.878C85.1378 44.0588 85.7058 43.6538 86.4844 43.6859C87.2616 43.718 87.8452 44.156 87.8665 44.9967C87.8947 46.0976 87.8887 47.1998 87.8829 48.3018C87.8804 48.7597 87.8779 49.2184 87.8779 49.6763L87.8864 49.6777ZM95.0069 43.3996C96.2832 43.4524 97.6798 44.104 98.7776 45.3748C99.3405 46.0264 99.3357 47.0355 98.7838 47.5278C98.0809 48.1549 97.2517 48.1373 96.6118 47.3616C95.8843 46.4805 95.0001 46.201 93.9228 46.3985C93.3348 46.5058 92.8977 46.835 92.7642 47.4344C92.6341 48.0232 92.9619 48.416 93.4351 48.7193C94.108 49.1511 94.8431 49.4473 95.5887 49.7183C96.2801 49.9694 96.9347 50.2903 97.565 50.6678C99.1667 51.6279 99.8833 53.0421 99.7455 54.8926C99.6092 56.7324 98.5634 57.9367 96.9563 58.6664C94.7956 59.648 91.9504 59.1901 90.4382 57.685C89.6528 56.9031 89.5219 56.0671 90.0823 55.411C90.7347 54.6469 91.5775 54.656 92.3861 55.4354C93.4059 56.4185 94.9908 56.5815 96.075 55.8152C97.1361 55.0648 97.1438 53.9079 96.0718 53.1844C95.4344 52.7539 94.7237 52.4769 94.0129 52.1997C93.7856 52.1112 93.5581 52.0223 93.3331 51.9287C91.7783 51.2796 90.3502 50.4923 89.9406 48.6373C89.3083 45.7738 91.4337 43.3757 95.0069 43.3996ZM57.722 50.9249C57.7211 50.1264 57.7203 49.3278 57.7201 48.5293C57.7197 47.6173 57.7207 46.7051 57.7218 45.7931C57.724 43.7085 57.7263 41.624 57.711 39.5398C57.7039 38.6005 57.0785 38.0208 56.2232 38.0454C55.4117 38.0684 54.8474 38.6005 54.8467 39.4304C54.8366 45.4867 54.836 51.5375 54.849 57.5915C54.8505 58.4352 55.3259 58.874 56.159 58.9214C57.175 58.9796 57.7116 58.426 57.717 57.2424C57.7265 55.1367 57.7242 53.0307 57.722 50.9249ZM74.0282 51.2856C74.0282 51.8659 74.0288 52.4462 74.0292 53.0263C74.0303 54.4347 74.0315 55.8434 74.0259 57.2515C74.0214 58.4329 73.5765 58.949 72.5943 58.9498C71.6204 58.9504 71.141 58.4238 71.138 57.2547C71.1258 53.3077 71.1273 49.3607 71.1372 45.4177C71.1403 44.3153 71.6945 43.679 72.5904 43.6782C73.4976 43.6774 74.0222 44.3006 74.0259 45.4148C74.0315 46.8014 74.0303 48.1885 74.0292 49.5754C74.0288 50.1463 74.0282 50.7177 74.0282 51.2887V51.2856ZM72.3415 41.97C73.5047 42.1117 74.0305 41.4885 74.0282 39.8775C74.081 39.1174 73.9654 38.3508 72.9732 38.0989C72.0538 37.8662 71.3133 38.363 71.1571 39.2895C70.8992 40.82 71.3548 41.849 72.3415 41.97Z" fill="#2D3C49"/>
</svg>
