<svg width="100" height="98" viewBox="0 0 100 98" fill="none" xmlns="http://www.w3.org/2000/svg">
<path d="M20.6487 38.5247H0.000488281V59.1729H20.6487V38.5247Z" fill="#017F50"/>
<path d="M16.0982 43.9556C14.8238 44.706 14.4367 44.7656 13.049 45.5994C13.859 44.7239 14.1388 44.3546 14.6332 43.6221C13.3587 43.6876 11.5005 43.8424 10.1724 44.1343C11.3278 43.5208 13.6147 42.83 14.8178 42.6692C14.5379 42.282 12.2747 41.0552 11.709 40.817C13.5016 40.9539 15.6933 41.6269 16.7594 42.2761C17.1762 42.1451 17.611 42.1391 18.3912 42.0676C18.1947 42.4071 18.1827 42.6036 17.4204 43.1099C17.6348 43.6757 17.1286 46.7845 16.7117 47.6124C16.6938 46.308 16.5807 44.6643 16.0982 43.9496" fill="white"/>
<path d="M6.76617 55.1168C6.03368 54.8429 5.50955 54.5272 4.9259 53.9852C5.09861 53.5028 5.29515 53.1335 5.62271 52.6512C5.02714 52.7405 4.58643 52.806 4.07424 52.9073C3.65735 52.1747 3.46676 51.472 3.25236 50.4893C3.1392 51.5315 3.09751 52.27 3.24045 53.0979C2.76995 53.2288 2.43643 53.342 2.04932 53.5147C2.59128 53.8482 3.032 54.1044 3.63352 54.3842C3.96108 55.0811 4.2946 55.5515 4.84252 56.0935C4.71745 55.635 4.68172 55.2716 4.73532 54.7892C5.41426 54.9858 5.99194 55.093 6.76024 55.1109" fill="white"/>
<path d="M8.67196 44.7715C8.44562 45.0693 8.17761 45.6172 8.10619 45.8733C9.9941 46.1294 11.5068 47.1002 11.5068 47.1002C9.85712 46.8083 8.98759 46.8441 8.37413 46.8977C7.76075 46.9572 7.63564 47.0287 7.63564 47.0287C7.18897 48.0054 6.92096 49.679 6.92096 49.679C6.6232 48.9524 6.1884 47.5051 6.1884 47.5051C5.35464 47.9519 3.44287 49.7504 3.44287 49.7504C4.49703 47.6422 5.56309 46.6833 5.56309 46.6833C5.19384 46.3081 4.22902 46.1234 3.52625 46.0937C3.88955 45.9448 4.83054 45.7721 5.55118 45.7363C6.27183 45.7185 6.71256 45.7542 6.71256 45.7542C7.35576 45.248 8.33246 44.8192 8.67196 44.7656" fill="white"/>
<path d="M10.6729 53.8123C10.3394 54.2649 10.0535 54.6164 9.68426 55.0332C9.047 55.2119 8.54078 55.2774 7.92139 55.2774C8.30257 55.474 8.67182 55.5931 9.06487 55.6764C8.66588 56.0338 8.33231 56.2899 7.94519 56.5341C8.58846 56.3793 9.44012 56.1053 10.0714 55.736C10.3989 55.7479 10.7086 55.7301 10.935 55.6824C10.8754 55.4918 10.8397 55.3489 10.792 55.0988C11.3876 54.6402 11.8164 54.2233 12.3107 53.717C11.7866 54.0863 11.328 54.3602 10.7206 54.6461C10.6967 54.3662 10.6789 54.128 10.667 53.8123" fill="white"/>
<path d="M25.8246 41.6864C25.8782 42.4427 25.9199 44.3426 25.9199 45.0394C25.9199 45.6766 25.914 47.8148 25.8127 48.7378L25.8008 48.8153H29.1479C30.7797 48.8153 32.5307 48.2972 32.5307 46.844C32.5307 45.9268 31.8696 45.2538 30.6308 44.8845C31.5361 44.6463 32.1555 44.0091 32.1555 43.2884C32.1555 42.1033 30.7856 41.6506 29.5052 41.6208H25.8127V41.6923L25.8246 41.6864ZM28.4094 42.4189C29.8089 42.4189 30.3271 42.7107 30.3271 43.4731C30.3271 43.6755 30.2675 43.8542 30.1424 44.0031C29.8744 44.3247 29.3444 44.4855 28.6833 44.4557H28.6535L28.2664 45.4682H28.6535C29.4218 45.4444 30.0948 45.6886 30.4343 46.1054C30.5951 46.302 30.6725 46.5224 30.6725 46.7546C30.6725 47.5586 29.9757 47.9636 28.594 47.9636C28.3617 47.9636 27.9865 47.9636 27.7482 47.9457C27.7006 46.8916 27.6947 45.4563 27.6947 45.0334C27.6947 44.5332 27.7185 43.4075 27.7482 42.4546C27.9031 42.4249 28.1652 42.407 28.4094 42.407" fill="black"/>
<path d="M40.2488 41.6146H38.6229L38.6885 43.4251C38.7182 44.3303 38.748 45.2535 38.8076 46.1409C38.6944 45.8669 38.6051 45.718 38.1227 45.0033C38.1048 44.9795 36.4193 42.3709 35.8298 41.6324L35.8119 41.6146H33.918V41.686C33.9775 42.4424 34.0192 44.3423 34.0192 45.0391C34.0192 45.6763 34.0192 47.8144 33.918 48.7435V48.8209H35.5915V48.7495C35.4902 46.9866 35.4902 45.2118 35.4902 43.4966C35.5498 43.699 35.6272 43.8837 35.8952 44.2767C35.925 44.3184 38.8135 48.5351 38.9564 48.7912L38.9743 48.8209H40.3263L40.3144 48.7435C40.2191 47.8204 40.2072 45.6763 40.2072 45.0391C40.2072 44.3363 40.2488 42.4364 40.3024 41.686V41.6146H40.2488Z" fill="black"/>
<path d="M42.2077 41.6804C42.2613 42.4427 42.303 44.3366 42.303 45.0393C42.303 45.6766 42.297 47.8147 42.1958 48.7378V48.8093H44.1969V48.7378C44.1195 48.0767 44.0956 46.8141 44.0837 45.8374C44.1671 45.8374 44.453 45.8553 44.453 45.8553L44.7329 45.8672C47.3712 45.8672 48.6577 45.1585 48.6577 43.6993C48.6577 42.0317 46.8591 41.6446 45.3523 41.6089H42.2077V41.6804ZM44.6614 42.4784C45.5965 42.4605 46.2576 42.6571 46.5732 43.0442C46.7161 43.2229 46.7876 43.4432 46.7876 43.6993C46.7876 44.7416 45.6203 44.9619 44.6435 44.9619L44.2446 44.95C44.2446 44.95 44.1493 44.9381 44.0837 44.9262C44.0837 44.688 44.0778 44.3783 44.0778 44.015C44.0778 43.5564 44.0837 43.0263 44.1016 42.5261C44.2267 42.5022 44.447 42.4844 44.6614 42.4784Z" fill="black"/>
<path d="M52.4821 41.6804C52.5357 42.4427 52.5774 44.3366 52.5774 45.0393C52.5774 45.6766 52.5714 47.8147 52.4702 48.7378V48.8093H54.4713L54.4594 48.7378C54.3939 48.0767 54.3641 46.8141 54.3581 45.8374C54.4415 45.8374 54.7214 45.8553 54.7214 45.8553L55.0073 45.8672C57.6457 45.8672 58.9321 45.1585 58.9321 43.6993C58.9321 42.0317 57.1334 41.6446 55.6207 41.6089H52.4762V41.6804H52.4821ZM54.9418 42.4784C55.8828 42.4605 56.5379 42.6571 56.8595 43.0442C57.0025 43.2229 57.0739 43.4432 57.0739 43.6993C57.0739 44.7416 55.9066 44.9619 54.9239 44.9619L54.5249 44.95C54.5249 44.95 54.4296 44.9381 54.3701 44.9262C54.3641 44.688 54.3581 44.3723 54.3581 44.009C54.3581 43.5504 54.3701 43.0263 54.3879 42.5261C54.513 42.5022 54.7274 42.4844 54.9418 42.4784Z" fill="black"/>
<path d="M61.6232 41.6148H61.5875L61.5755 41.6506C61.2004 42.675 58.8062 47.91 58.431 48.714L58.3833 48.8093H60.1045L60.1164 48.7676C60.2653 48.2732 60.4559 47.7194 60.6881 47.1179C60.7477 47.1179 62.1056 47.0941 62.1056 47.0941L63.2789 47.106C63.2789 47.106 63.4873 47.1119 63.5349 47.1119C63.8446 47.8861 64.077 48.4758 64.1783 48.7676L64.1899 48.8093H66.179L62.9751 41.6089H61.6292L61.6232 41.6148ZM62.1056 43.7351C62.2664 44.0745 62.6773 45.0393 63.1419 46.1769C63.0704 46.1769 62.987 46.1769 62.987 46.1769L62.1056 46.1888C62.1056 46.1888 61.1944 46.1709 61.0514 46.1709C61.4266 45.2597 61.7899 44.4319 62.1056 43.7351Z" fill="black"/>
<path d="M66.9664 41.6804C67.0199 42.4367 67.0618 44.3366 67.0618 45.0334C67.0618 45.6707 67.0554 47.8087 66.9541 48.7319V48.8093H68.9497V48.7319C68.8426 47.8028 68.8361 45.6647 68.8361 45.0275C68.8361 44.5272 68.86 43.4015 68.8961 42.5141C69.0626 42.4963 69.2833 42.4725 69.4381 42.4725C70.373 42.4546 71.0401 42.6511 71.3498 43.0382C71.4924 43.2169 71.5698 43.4313 71.5698 43.6934C71.5698 44.5212 70.784 44.944 70.0633 44.9858C69.8252 44.9976 69.6401 44.9619 69.6401 44.9619L69.5033 44.9381L69.593 45.0691C70.2956 46.1114 71.3614 47.9219 71.8144 48.7795L71.8318 48.8093H73.9822L73.9164 48.7021C73.8448 48.5829 72.4338 46.5223 71.8382 45.6408C71.8382 45.6408 71.8144 45.6111 71.8021 45.5873C72.8918 45.2597 73.4338 44.6403 73.4338 43.6934C73.4338 42.0258 71.6298 41.6387 70.1227 41.6089H66.978L66.9844 41.6744L66.9664 41.6804Z" fill="black"/>
<path d="M76.8165 41.6089H74.8925V41.6804C74.9583 42.4427 74.9938 44.3425 74.9938 45.0393C74.9938 45.6766 74.988 47.8147 74.8867 48.7378V48.8093H76.8817V48.7378C76.7746 47.8087 76.7688 45.6707 76.7688 45.0393C76.7688 44.3425 76.8101 42.4427 76.8636 41.6804V41.6089H76.8165Z" fill="black"/>
<path d="M78.6923 41.686C78.7458 42.4424 78.7878 44.3423 78.7878 45.0391C78.7878 45.6763 78.782 47.8144 78.6807 48.7375V48.815H82.0215C83.6596 48.815 85.4043 48.2968 85.4043 46.8377C85.4043 45.9205 84.7436 45.2475 83.5048 44.8783C84.4158 44.64 85.0352 44.0028 85.0352 43.2822C85.0352 42.097 83.6713 41.6443 82.3847 41.6146H78.6923L78.6981 41.686H78.6923ZM81.2769 42.4186C82.6706 42.4186 83.1951 42.7104 83.1951 43.4727C83.1951 43.6752 83.1293 43.8539 83.0041 44.0028C82.7422 44.3244 82.206 44.4852 81.5453 44.4554H81.5092L81.1285 45.4679H81.5215C82.2957 45.4441 82.9564 45.6883 83.3022 46.1051C83.4629 46.3017 83.5403 46.5221 83.5403 46.7543C83.5403 47.5583 82.8435 47.9633 81.4679 47.9633C81.2356 47.9633 80.8543 47.9633 80.6163 47.9454C80.5685 46.8913 80.5685 45.456 80.5685 45.0331C80.5685 44.5269 80.5924 43.4072 80.6279 42.4543C80.7769 42.4245 81.0447 42.4067 81.2834 42.4067" fill="black"/>
<path d="M90.3292 41.6092H88.9833L88.9717 41.6509C88.5782 42.7408 86.0354 48.2617 85.827 48.7144L85.7793 48.8097H87.5007L87.5123 48.7679C87.6613 48.2736 87.8517 47.7197 88.0781 47.1182C88.1375 47.1182 89.4956 47.0944 89.4956 47.0944L90.6686 47.1123C90.6686 47.1123 90.8712 47.1123 90.9247 47.1123C91.2344 47.8865 91.4609 48.4702 91.5622 48.7679L91.5738 48.8037H93.563L90.3589 41.6033H90.3292V41.6092ZM89.5014 43.7294C89.6621 44.0689 90.0731 45.0337 90.5376 46.1653C90.466 46.1653 90.3886 46.1713 90.3886 46.1713L89.5014 46.1832C89.5014 46.1832 88.5904 46.1653 88.4472 46.1653C88.8169 45.2482 89.1859 44.4263 89.5014 43.7294Z" fill="black"/>
<path d="M94.124 43.4794C94.124 44.748 95.3989 45.2601 96.5241 45.7127C97.3996 46.0642 98.299 46.4334 98.299 47.0349C98.299 47.2195 98.2571 47.3625 98.1623 47.4757C97.9539 47.7257 97.5248 47.827 96.8461 47.7972C96.1847 47.7675 95.4286 47.5531 94.5885 47.16L94.2375 46.9992V47.2791V48.5715L94.4633 48.6191L94.6008 48.6489C95.0234 48.7501 95.8215 48.9407 96.6312 48.9407C98.7455 48.9407 100.008 48.101 100.008 46.7074C100.008 45.409 98.7042 44.8909 97.5545 44.4323C96.7028 44.0928 95.8273 43.7414 95.8273 43.1935C95.8273 43.0327 95.8273 42.5503 96.917 42.5503C97.7274 42.5503 98.5255 42.8838 98.9539 43.0565L99.3649 43.2292V42.9553V41.645L98.9539 41.5736C98.5494 41.4961 97.8642 41.3651 97.1558 41.3651C95.3389 41.3651 94.1182 42.2168 94.1182 43.4794" fill="black"/>
<path d="M25.8062 56.26C25.8836 55.4202 25.8836 53.848 25.8836 53.3775C25.8836 52.8593 25.8657 51.3763 25.824 50.757H30.0525V51.6563C29.4213 51.5848 28.8435 51.5848 28.3731 51.5848C28.242 51.5848 27.6107 51.5848 27.4559 51.5967C27.438 51.8647 27.4261 52.2578 27.4261 52.5973C27.4261 52.7878 27.4261 52.9546 27.438 53.0975L29.2187 53.0559V53.9135H27.438C27.4499 54.6937 27.4499 55.6525 27.5393 56.254H25.8121L25.8062 56.26Z" fill="black"/>
<path d="M30.1538 53.5204C30.1538 51.7814 31.4164 50.6379 33.1018 50.6379C34.7873 50.6379 36.0439 51.7754 36.0439 53.5204C36.0439 55.2655 34.7754 56.3792 33.1018 56.3792C31.4283 56.3792 30.1538 55.2416 30.1538 53.5204ZM34.424 53.5204C34.424 52.103 33.9118 51.3407 33.1018 51.3407C32.2919 51.3407 31.7499 52.103 31.7499 53.5204C31.7499 54.9379 32.2681 55.6585 33.1018 55.6585C33.9356 55.6585 34.424 54.926 34.424 53.5204Z" fill="black"/>
<path d="M36.7056 56.2604C36.7949 55.4385 36.8128 54.4796 36.8128 53.3719C36.8128 52.4488 36.8009 51.3231 36.7234 50.7633H39.2069C40.3862 50.7633 41.7977 51.1921 41.7977 52.4726C41.7977 53.1634 41.2378 53.7411 40.4993 53.9555C40.7019 54.3248 41.9585 55.9745 42.2325 56.2663H40.4338C39.9812 55.4742 39.2546 54.1759 38.7543 53.5029C38.8675 53.5207 38.9866 53.5446 39.1057 53.5446C39.7072 53.5446 40.2552 53.223 40.2552 52.4666C40.2552 51.7103 39.4749 51.5375 38.7841 51.5375C38.6412 51.5375 38.5221 51.5375 38.403 51.5495C38.3731 52.2165 38.3613 53.0205 38.3613 53.3778C38.3613 53.8602 38.3613 55.4266 38.4506 56.2663H36.7115L36.7056 56.2604Z" fill="black"/>
<path d="M43.8338 56.2604C43.9232 55.4207 43.9411 53.8424 43.9411 53.3719C43.9411 52.8001 43.9291 52.1689 43.8994 51.5733C43.28 51.5733 42.6666 51.6209 42.1187 51.6924V50.7633H47.2584V51.7043C46.7283 51.615 46.0613 51.5733 45.5074 51.5733C45.4657 52.151 45.4597 53.0205 45.4597 53.3719C45.4597 53.8424 45.4717 55.4207 45.567 56.2604H43.8279H43.8338Z" fill="black"/>
<path d="M47.771 56.26C47.8722 55.4202 47.8782 53.848 47.8782 53.3775C47.8782 52.8593 47.8365 51.3763 47.8007 50.757H49.4922C49.4505 51.3763 49.4207 52.8474 49.4207 53.3775C49.4207 53.8658 49.4207 55.5096 49.4922 56.26H47.771Z" fill="black"/>
<path d="M50.3845 56.0691V54.7708C51.2541 55.1996 51.8735 55.4498 52.4869 55.4498C53.1003 55.4498 53.4279 55.2115 53.4279 54.8422C53.4279 53.9192 50.3071 54.0025 50.3071 52.2218C50.3071 51.2391 51.2362 50.6435 52.6298 50.6435C53.3981 50.6435 54.0413 50.7507 54.4523 50.8758V52.2039C54.0294 51.8645 53.1897 51.6024 52.5643 51.6024C52.1355 51.6024 51.8139 51.7334 51.8139 52.0431C51.8139 52.9841 54.9466 53.0318 54.9466 54.7113C54.9466 55.7892 53.9579 56.3788 52.3082 56.3788C51.5578 56.3788 50.867 56.2359 50.3965 56.0691" fill="black"/>
</svg>
