<svg width="100" height="21" viewBox="0 0 100 21" fill="none" xmlns="http://www.w3.org/2000/svg">
<path d="M20.6482 0H0V20.6483H20.6482V0Z" fill="#017F50"/>
<path d="M16.0977 5.43093C14.8233 6.18136 14.4362 6.24091 13.0485 7.0747C13.8585 6.19923 14.1384 5.82999 14.6327 5.09741C13.3582 5.16292 11.5 5.31777 10.1719 5.6096C11.3273 4.99616 13.6143 4.30531 14.8173 4.1445C14.5374 3.75738 12.2742 2.53052 11.7085 2.2923C13.5011 2.42927 15.6928 3.10226 16.7589 3.75143C17.1757 3.62041 17.6105 3.61445 18.3907 3.54299C18.1942 3.88246 18.1822 4.07899 17.4199 4.58522C17.6343 5.15101 17.1281 8.25986 16.7112 9.08772C16.6933 7.78339 16.5802 6.13968 16.0977 5.42497" fill="white"/>
<path d="M6.76569 16.5921C6.03319 16.3182 5.50906 16.0025 4.92541 15.4605C5.09812 14.9782 5.29466 14.6089 5.62222 14.1265C5.02666 14.2158 4.58594 14.2814 4.07375 14.3826C3.65686 13.65 3.46627 12.9473 3.25187 11.9646C3.13871 13.0069 3.09702 13.7453 3.23996 14.5732C2.76946 14.7042 2.43595 14.8173 2.04883 14.9901C2.59079 15.3236 3.03151 15.5797 3.63303 15.8596C3.96059 16.5564 4.29411 17.0269 4.84203 17.5688C4.71696 17.1103 4.68123 16.747 4.73483 16.2646C5.41377 16.4611 5.99145 16.5683 6.75975 16.5862" fill="white"/>
<path d="M8.67147 6.24684C8.44513 6.54466 8.17712 7.09257 8.1057 7.34864C9.99361 7.60472 11.5063 8.57555 11.5063 8.57555C9.85663 8.28366 8.9871 8.31941 8.37365 8.37302C7.76026 8.43257 7.63515 8.50406 7.63515 8.50406C7.18848 9.48076 6.92047 11.1543 6.92047 11.1543C6.62271 10.4277 6.18791 8.98048 6.18791 8.98048C5.35415 9.42721 3.44238 11.2258 3.44238 11.2258C4.49654 9.11752 5.5626 8.15862 5.5626 8.15862C5.19335 7.78344 4.22853 7.59879 3.52576 7.56904C3.88906 7.42013 4.83005 7.24741 5.55069 7.21167C6.27134 7.1938 6.71207 7.22954 6.71207 7.22954C7.35527 6.72332 8.33197 6.29452 8.67147 6.24091" fill="white"/>
<path d="M10.6724 15.2877C10.3389 15.7403 10.053 16.0917 9.68377 16.5086C9.04651 16.6872 8.54029 16.7528 7.9209 16.7528C8.30208 16.9493 8.67133 17.0684 9.06438 17.1518C8.66539 17.5092 8.33182 17.7652 7.94471 18.0094C8.58797 17.8546 9.43963 17.5806 10.0709 17.2113C10.3985 17.2233 10.7081 17.2054 10.9345 17.1578C10.8749 16.9672 10.8392 16.8242 10.7915 16.5741C11.3871 16.1155 11.8159 15.6986 12.3102 15.1924C11.7861 15.5616 11.3275 15.8356 10.7201 16.1215C10.6962 15.8416 10.6784 15.6033 10.6665 15.2877" fill="white"/>
<path d="M25.8241 3.1617C25.8777 3.91807 25.9194 5.81791 25.9194 6.51472C25.9194 7.15198 25.9135 9.2901 25.8122 10.2132L25.8003 10.2906H29.1474C30.7792 10.2906 32.5302 9.77251 32.5302 8.31934C32.5302 7.40212 31.8691 6.72912 30.6303 6.35987C31.5356 6.12167 32.155 5.48441 32.155 4.76378C32.155 3.5786 30.7851 3.12597 29.5047 3.09619H25.8122V3.16766L25.8241 3.1617ZM28.4089 3.89425C29.8084 3.89425 30.3266 4.18608 30.3266 4.9484C30.3266 5.15089 30.2671 5.32957 30.142 5.47846C29.8739 5.80006 29.3439 5.96088 28.6828 5.93108H28.653L28.2659 6.94352H28.653C29.4213 6.91971 30.0943 7.16392 30.4338 7.58078C30.5946 7.77737 30.672 7.99771 30.672 8.22998C30.672 9.03396 29.9752 9.43895 28.5935 9.43895C28.3612 9.43895 27.986 9.43895 27.7478 9.42107C27.7001 8.36695 27.6942 6.93165 27.6942 6.50878C27.6942 6.0085 27.718 4.88289 27.7478 3.92999C27.9026 3.9002 28.1647 3.88234 28.4089 3.88234" fill="black"/>
<path d="M40.2483 3.0899H38.6224L38.688 4.90043C38.7177 5.80569 38.7476 6.72881 38.8071 7.61622C38.6939 7.34227 38.6046 7.19336 38.1222 6.47867C38.1043 6.45486 36.4188 3.84628 35.8293 3.10777L35.8114 3.0899H33.9175V3.16137C33.977 3.91774 34.0187 5.8176 34.0187 6.51442C34.0187 7.15168 34.0187 9.28973 33.9175 10.2188V10.2962H35.5911V10.2248C35.4898 8.46194 35.4898 6.68713 35.4898 4.9719C35.5493 5.17439 35.6267 5.35902 35.8948 5.75209C35.9246 5.79378 38.813 10.0104 38.956 10.2665L38.9738 10.2962H40.3258L40.3139 10.2188C40.2186 9.29573 40.2067 7.15168 40.2067 6.51442C40.2067 5.81167 40.2483 3.91179 40.302 3.16137V3.0899H40.2483Z" fill="black"/>
<path d="M42.2072 3.1557C42.2608 3.91802 42.3025 5.81192 42.3025 6.51467C42.3025 7.15193 42.2965 9.29005 42.1953 10.2131V10.2846H44.1964V10.2131C44.119 9.55206 44.0952 8.28948 44.0832 7.31278C44.1666 7.31278 44.4525 7.33065 44.4525 7.33065L44.7324 7.34252C47.3708 7.34252 48.6572 6.63384 48.6572 5.17467C48.6572 3.50708 46.8586 3.11997 45.3518 3.08423H42.2072V3.1557ZM44.6609 3.95376C45.596 3.93589 46.2571 4.13243 46.5727 4.51955C46.7156 4.69821 46.7871 4.91857 46.7871 5.17467C46.7871 6.21691 45.6198 6.43724 44.6431 6.43724L44.2441 6.42537C44.2441 6.42537 44.1488 6.41344 44.0832 6.40157C44.0832 6.16329 44.0773 5.8536 44.0773 5.49032C44.0773 5.03173 44.0832 4.50167 44.1011 4.0014C44.2262 3.97758 44.4465 3.95972 44.6609 3.95376Z" fill="black"/>
<path d="M52.4816 3.1557C52.5352 3.91802 52.5769 5.81192 52.5769 6.51467C52.5769 7.15193 52.571 9.29005 52.4697 10.2131V10.2846H54.4708L54.4589 10.2131C54.3934 9.55206 54.3636 8.28948 54.3576 7.31278C54.441 7.31278 54.7209 7.33065 54.7209 7.33065L55.0068 7.34252C57.6452 7.34252 58.9316 6.63384 58.9316 5.17467C58.9316 3.50708 57.1329 3.11997 55.6202 3.08423H52.4757V3.1557H52.4816ZM54.9413 3.95376C55.8823 3.93589 56.5374 4.13243 56.859 4.51955C57.002 4.69821 57.0734 4.91857 57.0734 5.17467C57.0734 6.21691 55.9061 6.43724 54.9234 6.43724L54.5244 6.42537C54.5244 6.42537 54.4291 6.41344 54.3696 6.40157C54.3636 6.16329 54.3576 5.84766 54.3576 5.48436C54.3576 5.02577 54.3696 4.50167 54.3874 4.0014C54.5125 3.97758 54.7269 3.95972 54.9413 3.95376Z" fill="black"/>
<path d="M61.6227 3.09018H61.587L61.5751 3.12592C61.1999 4.15029 58.8057 9.38534 58.4305 10.1893L58.3828 10.2846H60.104L60.1159 10.2429C60.2648 9.74859 60.4554 9.19475 60.6876 8.59323C60.7472 8.59323 62.1051 8.56943 62.1051 8.56943L63.2784 8.5813C63.2784 8.5813 63.4868 8.58723 63.5344 8.58723C63.8441 9.36147 64.0765 9.95112 64.1778 10.2429L64.1894 10.2846H66.1785L62.9746 3.08423H61.6287L61.6227 3.09018ZM62.1051 5.2104C62.2659 5.54987 62.6769 6.51467 63.1414 7.65221C63.0699 7.65221 62.9865 7.65221 62.9865 7.65221L62.1051 7.66415C62.1051 7.66415 61.1939 7.64628 61.051 7.64628C61.4261 6.73507 61.7894 5.90722 62.1051 5.2104Z" fill="black"/>
<path d="M66.9659 3.1557C67.0194 3.91207 67.0614 5.81192 67.0614 6.50873C67.0614 7.14599 67.0549 9.28405 66.9536 10.2072V10.2846H68.9492V10.2072C68.8421 9.27811 68.8357 7.14006 68.8357 6.5028C68.8357 6.00251 68.8595 4.87688 68.8957 3.98949C69.0621 3.97163 69.2828 3.9478 69.4376 3.9478C70.3725 3.92993 71.0396 4.12647 71.3493 4.51359C71.4919 4.69226 71.5693 4.90666 71.5693 5.16871C71.5693 5.99658 70.7835 6.41937 70.0628 6.46112C69.8247 6.47299 69.6396 6.43724 69.6396 6.43724L69.5028 6.41344L69.5925 6.54448C70.2951 7.58673 71.3609 9.39721 71.8139 10.2549L71.8313 10.2846H73.9817L73.9159 10.1774C73.8443 10.0583 72.4333 7.99765 71.8378 7.11619C71.8378 7.11619 71.8139 7.08644 71.8016 7.06263C72.8914 6.73507 73.4333 6.11568 73.4333 5.16871C73.4333 3.50113 71.6294 3.11401 70.1222 3.08423H66.9775L66.9839 3.14974L66.9659 3.1557Z" fill="black"/>
<path d="M76.816 3.08423H74.892V3.1557C74.9578 3.91802 74.9933 5.81786 74.9933 6.51467C74.9933 7.15193 74.9875 9.29005 74.8862 10.2131V10.2846H76.8812V10.2131C76.7741 9.28405 76.7683 7.14599 76.7683 6.51467C76.7683 5.81786 76.8096 3.91802 76.8631 3.1557V3.08423H76.816Z" fill="black"/>
<path d="M78.6918 3.16137C78.7453 3.91774 78.7873 5.8176 78.7873 6.51442C78.7873 7.15168 78.7815 9.28973 78.6802 10.2129V10.2903H82.021C83.6592 10.2903 85.4038 9.77214 85.4038 8.31303C85.4038 7.39582 84.7431 6.72288 83.5043 6.35363C84.4153 6.11536 85.0347 5.47813 85.0347 4.75749C85.0347 3.57231 83.6708 3.11969 82.3843 3.0899H78.6918L78.6976 3.16137H78.6918ZM81.2764 3.89392C82.6701 3.89392 83.1946 4.18575 83.1946 4.94807C83.1946 5.15057 83.1288 5.32923 83.0036 5.47813C82.7417 5.79973 82.2055 5.96051 81.5449 5.93077H81.5087L81.1281 6.94321H81.521C82.2952 6.91941 82.9559 7.16361 83.3017 7.58047C83.4624 7.777 83.5398 7.9974 83.5398 8.22967C83.5398 9.03365 82.843 9.43864 81.4674 9.43864C81.2352 9.43864 80.8538 9.43864 80.6158 9.42077C80.568 8.36665 80.568 6.93134 80.568 6.50848C80.568 6.00226 80.5919 4.88256 80.6274 3.92965C80.7764 3.89988 81.0442 3.88201 81.2829 3.88201" fill="black"/>
<path d="M90.3287 3.08457H88.9829L88.9712 3.12626C88.5777 4.21615 86.035 9.73703 85.8266 10.1897L85.7788 10.285H87.5002L87.5118 10.2433C87.6609 9.74897 87.8512 9.19506 88.0776 8.59355C88.137 8.59355 89.4951 8.56974 89.4951 8.56974L90.6681 8.58761C90.6681 8.58761 90.8707 8.58761 90.9243 8.58761C91.234 9.36185 91.4604 9.94549 91.5617 10.2433L91.5733 10.279H93.5625L90.3584 3.07861H90.3287V3.08457ZM89.501 5.20479C89.6616 5.54426 90.0726 6.50905 90.5371 7.64066C90.4655 7.64066 90.3881 7.64659 90.3881 7.64659L89.501 7.65853C89.501 7.65853 88.5899 7.64066 88.4467 7.64066C88.8164 6.72351 89.1855 5.90159 89.501 5.20479Z" fill="black"/>
<path d="M94.1235 4.95472C94.1235 6.2233 95.3984 6.73546 96.5236 7.18806C97.3991 7.5395 98.2985 7.90875 98.2985 8.51026C98.2985 8.69485 98.2566 8.83783 98.1618 8.951C97.9534 9.20107 97.5243 9.30237 96.8456 9.27256C96.1842 9.24282 95.4281 9.02842 94.588 8.6353L94.237 8.47452V8.75441V10.0468L94.4629 10.0945L94.6003 10.1242C95.0229 10.2255 95.821 10.416 96.6307 10.416C98.745 10.416 100.008 9.57632 100.008 8.1827C100.008 6.88437 98.7037 6.36621 97.554 5.9076C96.7023 5.56815 95.8268 5.21677 95.8268 4.66885C95.8268 4.50804 95.8268 4.02564 96.9165 4.02564C97.7269 4.02564 98.525 4.35915 98.9534 4.53186L99.3644 4.70458V4.43062V3.12037L98.9534 3.0489C98.5489 2.97148 97.8637 2.84045 97.1553 2.84045C95.3384 2.84045 94.1177 3.69211 94.1177 4.95472" fill="black"/>
<path d="M25.8057 17.7354C25.8831 16.8956 25.8831 15.3233 25.8831 14.8528C25.8831 14.3347 25.8652 12.8517 25.8235 12.2323H30.052V13.1316C29.4208 13.0602 28.8431 13.0602 28.3726 13.0602C28.2415 13.0602 27.6102 13.0602 27.4554 13.0721C27.4375 13.34 27.4256 13.7332 27.4256 14.0726C27.4256 14.2632 27.4256 14.43 27.4375 14.5729L29.2182 14.5312V15.3888H27.4375C27.4494 16.169 27.4494 17.1279 27.5388 17.7294H25.8116L25.8057 17.7354Z" fill="black"/>
<path d="M30.1533 14.9958C30.1533 13.2568 31.4159 12.1133 33.1014 12.1133C34.7868 12.1133 36.0435 13.2508 36.0435 14.9958C36.0435 16.7408 34.7749 17.8545 33.1014 17.8545C31.4278 17.8545 30.1533 16.717 30.1533 14.9958ZM34.4235 14.9958C34.4235 13.5783 33.9113 12.816 33.1014 12.816C32.2914 12.816 31.7494 13.5783 31.7494 14.9958C31.7494 16.4133 32.2676 17.1339 33.1014 17.1339C33.9351 17.1339 34.4235 16.4013 34.4235 14.9958Z" fill="black"/>
<path d="M36.7051 17.7357C36.7944 16.9138 36.8123 15.955 36.8123 14.8472C36.8123 13.9241 36.8004 12.7985 36.7229 12.2386H39.2064C40.3857 12.2386 41.7972 12.6674 41.7972 13.9479C41.7972 14.6388 41.2373 15.2165 40.4988 15.4309C40.7014 15.8001 41.958 17.4498 42.232 17.7417H40.4333C39.9807 16.9496 39.2541 15.6512 38.7538 14.9782C38.867 14.9961 38.9861 15.02 39.1052 15.02C39.7067 15.02 40.2547 14.6983 40.2547 13.942C40.2547 13.1856 39.4745 13.0129 38.7836 13.0129C38.6407 13.0129 38.5216 13.0129 38.4025 13.0248C38.3727 13.6918 38.3608 14.4959 38.3608 14.8532C38.3608 15.3356 38.3608 16.9019 38.4501 17.7417H36.711L36.7051 17.7357Z" fill="black"/>
<path d="M43.8334 17.7357C43.9227 16.896 43.9406 15.3177 43.9406 14.8472C43.9406 14.2755 43.9287 13.6442 43.8989 13.0486C43.2795 13.0486 42.6661 13.0962 42.1182 13.1677V12.2386H47.2579V13.1797C46.7278 13.0903 46.0608 13.0486 45.5069 13.0486C45.4653 13.6263 45.4593 14.4959 45.4593 14.8472C45.4593 15.3177 45.4712 16.896 45.5665 17.7357H43.8274H43.8334Z" fill="black"/>
<path d="M47.7705 17.7354C47.8717 16.8956 47.8777 15.3233 47.8777 14.8528C47.8777 14.3347 47.836 12.8517 47.8003 12.2323H49.4917C49.45 12.8517 49.4202 14.3227 49.4202 14.8528C49.4202 15.3412 49.4202 16.9849 49.4917 17.7354H47.7705Z" fill="black"/>
<path d="M50.3841 17.5445V16.2462C51.2536 16.675 51.873 16.9251 52.4864 16.9251C53.0998 16.9251 53.4274 16.6868 53.4274 16.3176C53.4274 15.3945 50.3066 15.4779 50.3066 13.6971C50.3066 12.7144 51.2357 12.1188 52.6293 12.1188C53.3976 12.1188 54.0408 12.2261 54.4518 12.3511V13.6792C54.0289 13.3398 53.1892 13.0777 52.5638 13.0777C52.135 13.0777 51.8134 13.2088 51.8134 13.5185C51.8134 14.4594 54.9461 14.5071 54.9461 16.1866C54.9461 17.2645 53.9574 17.8542 52.3077 17.8542C51.5573 17.8542 50.8665 17.7112 50.396 17.5445" fill="black"/>
</svg>
