<svg width="63" height="51" viewBox="0 0 63 51" fill="none" xmlns="http://www.w3.org/2000/svg">
<path d="M39.8629 7.0636C41.7991 4.70925 43.7328 2.35318 45.6696 1.43109e-06C45.8092 0.11301 45.9475 0.227871 46.0866 0.342047C44.8483 2.47766 43.6083 4.61259 42.369 6.74759C42.6299 7.00864 42.8988 7.26117 43.1648 7.51865C43.8446 7.55369 44.5051 7.9048 44.8888 8.47163C45.4279 9.22758 45.4145 10.3232 44.8501 11.0616C44.2754 11.8696 43.1255 12.185 42.2173 11.7928C42.0782 11.7432 41.9489 11.6339 41.7936 11.669C41.0969 11.7372 40.3995 11.7983 39.7034 11.8641C40.1312 13.6982 40.5602 15.5321 40.9888 17.3662C41.0122 17.507 41.1295 17.5988 41.2128 17.7058C41.9689 18.6123 42.3828 19.7882 42.3955 20.966C44.3135 20.9654 46.2316 20.966 48.1489 20.966C47.4788 23.2677 46.8038 25.5683 46.1306 27.8694C45.7342 29.1959 44.7081 30.2957 43.4457 30.8456C43.1551 30.3416 42.8512 29.8455 42.5569 29.3433C43.4415 29.0145 44.1951 28.2924 44.4689 27.3769C44.9262 25.8142 45.3825 24.2509 45.84 22.6882H40.4763C40.5294 22.2646 40.5899 21.8428 40.6394 21.4192C40.7585 20.407 40.4074 19.3471 39.698 18.6134C39.5879 18.4926 39.4235 18.4002 39.4073 18.2219C38.7945 15.5884 38.1763 12.9561 37.563 10.3232C39.1964 10.1703 40.8304 10.021 42.4638 9.86696C42.6058 9.98237 42.7315 10.1262 42.9019 10.2011C43.1956 10.3159 43.5515 10.073 43.5515 9.75752C43.5703 9.46631 43.2862 9.21185 42.9991 9.25541C42.8572 9.24634 42.6886 9.33214 42.5725 9.21913C41.6698 8.5 40.7639 7.78451 39.8629 7.0636Z" fill="black"/>
<path d="M37.5699 2.85048C38.3337 3.52063 39.0963 4.19318 39.8602 4.8634C39.4957 5.30931 39.1289 5.7529 38.7634 6.19765C38.3766 5.89064 37.9928 5.58005 37.608 5.27064C37.2436 5.63206 36.8828 5.99643 36.519 6.35779C35.615 6.2895 34.662 6.43212 33.891 6.93306C33.2951 7.31379 32.8649 7.92712 32.6733 8.60455C31.8545 12.0375 31.0302 15.4693 30.2054 18.9011C28.9091 18.8945 27.6129 18.8884 26.3167 18.8805C25.3619 18.8606 24.3848 19.0352 23.5394 19.4946C22.8838 19.8499 22.3447 20.4378 22.1078 21.1521C21.877 21.8585 21.7362 22.6199 21.8733 23.3596C22.0057 24.0231 22.2009 24.6734 22.4239 25.312C22.7073 26.1327 22.7889 27.0386 22.5622 27.8839C22.3876 28.5632 22.0202 29.1826 21.5459 29.6957C22.3314 32.1086 23.1345 34.5161 23.9147 36.9315C23.3092 36.9272 22.7031 36.9296 22.0982 36.9302C21.2364 34.3221 20.3807 31.7122 19.5257 29.1022C19.8158 28.8799 20.1384 28.6918 20.3777 28.4097C20.8201 27.9099 21.0279 27.2162 20.9391 26.5551C20.8944 26.0922 20.6986 25.6662 20.5681 25.2257C20.3983 24.6734 20.2454 24.1137 20.1457 23.5439C19.9861 22.5069 20.1681 21.444 20.5149 20.4626C19.5148 20.6222 18.557 21.0518 17.7853 21.7099C16.929 22.4302 16.3054 23.4212 16.0287 24.5053C15.7264 25.6451 15.8189 26.8796 16.2727 27.9661C16.5296 28.5668 16.7259 29.217 16.6673 29.8775C16.5973 30.761 15.9851 31.5605 15.1747 31.9025C14.5892 32.1599 13.9045 32.1684 13.3105 31.9321C13.5202 31.3973 13.7414 30.8673 13.9492 30.3319C14.3831 30.4921 14.9046 30.1664 14.9451 29.7071C14.9657 29.1523 14.6496 28.6695 14.4937 28.1547C13.7698 26.0475 14.1148 23.6134 15.3911 21.7878C16.7109 19.8583 19.0187 18.6401 21.3609 18.6812C21.4546 18.6794 21.5645 18.6957 21.6304 18.6105C22.5151 17.7928 23.7019 17.3844 24.8779 17.223C25.4955 17.1294 26.1216 17.1468 26.7446 17.1511C27.3839 17.1728 28.0245 17.142 28.6644 17.1716C28.9545 16.5745 29.1321 15.9316 29.3231 15.2977C29.8766 13.3495 30.325 11.3728 30.7347 9.39011C30.8537 8.84204 30.9227 8.27885 31.1275 7.75311C31.4756 6.80439 32.1451 5.97768 33.0026 5.44348C33.8348 4.91657 34.8161 4.66094 35.7944 4.61444C36.3824 4.02281 36.9819 3.44272 37.5699 2.85048Z" fill="black"/>
<path d="M29.5988 23.9536C30.2314 24.2618 30.8859 24.5308 31.5754 24.6818C33.1441 25.0571 34.8017 25.0885 36.3741 24.718C36.7554 24.6274 37.1361 24.5332 37.5174 24.4419C37.515 25.0069 37.5192 25.5719 37.515 26.137C37.5167 26.2336 37.5071 26.3394 37.5663 26.4234C39.6517 29.9247 41.736 33.4265 43.8214 36.9285C43.1482 36.9309 42.4756 36.9285 41.8031 36.9296C39.8705 33.687 37.9404 30.4419 36.0085 27.1993C35.8973 27.012 35.7463 26.8276 35.7788 26.595C33.966 26.8549 32.0969 26.6941 30.3504 26.1442C29.4603 27.7142 28.566 29.2817 27.6759 30.8517C28.4591 32.8778 29.2452 34.9028 30.0284 36.929C29.4084 36.929 28.7884 36.9303 28.1684 36.929C27.3652 34.8569 26.5658 32.7836 25.7603 30.7126C27.0365 28.4581 28.3212 26.2077 29.5988 23.9536Z" fill="black"/>
<path d="M46.7866 45.7227C46.3352 46.4853 45.8922 47.2522 45.4463 48.0178C46.3678 48.0184 47.2894 48.0178 48.2115 48.0178C47.7468 47.254 47.2894 46.4853 46.8204 45.7245C46.812 45.7239 46.7951 45.7233 46.7866 45.7227ZM41.6797 50.7878C43.3771 47.8769 45.074 44.9661 46.7738 42.057C48.5372 44.9667 50.2975 47.8769 52.0584 50.7873C51.3351 50.7884 50.6123 50.7873 49.889 50.7878C49.6576 50.4066 49.4249 50.0259 49.1971 49.6421C47.6314 49.6361 46.0657 49.6415 44.4999 49.6397C44.2739 50.021 44.0534 50.406 43.8286 50.7878C43.1125 50.7873 42.3958 50.7884 41.6797 50.7878Z" fill="black"/>
<path d="M56.3864 42.5937C57.5255 42.3211 58.7347 42.3266 59.8695 42.6184C60.5729 42.8112 61.2703 43.1278 61.7754 43.6693C62.1139 44.021 62.3169 44.4948 62.3314 44.9836C61.7163 44.9897 61.1017 44.9855 60.487 44.9861C60.4315 44.6833 60.1396 44.522 59.881 44.4126C59.2997 44.1794 58.6646 44.1286 58.0446 44.1219C57.4076 44.1388 56.7393 44.1854 56.1701 44.499C55.9658 44.6132 55.7343 44.8344 55.825 45.0918C55.9706 45.3746 56.3187 45.4447 56.5985 45.5269C57.7648 45.7879 58.9716 45.8423 60.1251 46.1669C60.7579 46.3457 61.4086 46.594 61.8666 47.0854C62.4366 47.6878 62.4668 48.6879 61.9821 49.3503C61.4485 50.0954 60.5626 50.4912 59.6961 50.7002C58.4717 50.9746 57.1683 50.9456 55.9706 50.5613C55.3585 50.3558 54.7632 50.0392 54.3318 49.5497C54.026 49.2041 53.8363 48.7538 53.8345 48.2891C54.4442 48.291 55.0545 48.2897 55.6649 48.2897C55.738 48.607 56.0468 48.7731 56.3259 48.8826C57.0281 49.1436 57.7907 49.1714 58.5316 49.137C59.0864 49.0953 59.6616 49.013 60.1487 48.7261C60.3306 48.6173 60.5276 48.4269 60.4611 48.193C60.3741 47.9387 60.0974 47.8311 59.8641 47.7502C59.2525 47.5603 58.6119 47.4963 57.9817 47.4032C57.0499 47.2661 56.1012 47.1392 55.2255 46.7742C54.788 46.5862 54.3595 46.3203 54.0973 45.9119C53.7093 45.3082 53.7674 44.476 54.1916 43.9056C54.7095 43.1931 55.5543 42.8064 56.3864 42.5937Z" fill="black"/>
<path d="M16.126 44.7691C16.7346 43.5871 17.9329 42.743 19.243 42.5399C19.6443 42.4674 20.0528 42.4922 20.4583 42.4892C21.6324 42.4892 22.8065 42.4886 23.9812 42.4892C23.9812 43.1067 23.9825 43.7237 23.9806 44.3413C22.583 44.3431 21.1858 44.3419 19.7881 44.3419C19.0786 44.3425 18.3867 44.7093 17.9715 45.2822C17.5715 45.8224 17.4247 46.544 17.5963 47.196C17.8464 48.1948 18.829 48.9218 19.8485 48.9345C20.6081 48.9351 21.3671 48.9345 22.1267 48.9345C22.1303 48.0148 22.1267 47.0951 22.1285 46.1753C22.7461 46.1747 23.3637 46.1747 23.9812 46.1753C23.9819 47.7126 23.9812 49.25 23.9812 50.7873C22.5848 50.7885 21.1883 50.7867 19.7917 50.7885C19.0176 50.7903 18.2477 50.5595 17.5957 50.1443C16.7237 49.5926 16.0699 48.7043 15.81 47.7054C15.5508 46.7318 15.6566 45.6623 16.126 44.7691Z" fill="black"/>
<path d="M28.1207 42.4891C28.7377 42.4878 29.3553 42.4891 29.9729 42.4891C29.9741 45.2549 29.9741 48.0213 29.9729 50.7878C29.3553 50.7872 28.7377 50.7884 28.1201 50.7872C28.1201 48.0213 28.1201 45.2556 28.1207 42.4891Z" fill="black"/>
<path d="M32.7239 42.4892C35.4933 42.4892 38.2628 42.4885 41.0323 42.4892V44.3419C39.9579 44.3426 38.884 44.3419 37.8096 44.3419C37.809 46.4908 37.8102 48.6391 37.809 50.7873C37.1914 50.7873 36.5732 50.7897 35.9556 50.7866C35.9574 48.6385 35.955 46.4908 35.9562 44.3431C34.8788 44.3407 33.8013 44.3431 32.7239 44.3419C32.7232 43.7243 32.7226 43.1067 32.7239 42.4892Z" fill="black"/>
<path d="M1.8542 44.4131C1.8542 45.9468 1.85358 47.4811 1.8542 49.0154C2.57635 49.0154 3.29844 49.0142 4.02059 49.0161C4.31915 49.0209 4.62129 48.9882 4.9035 48.8873C5.67999 48.6251 6.28488 47.9186 6.41904 47.1095C6.56647 46.3305 6.25891 45.4942 5.66007 44.9793C5.24369 44.6162 4.695 44.4125 4.14205 44.4131C3.37943 44.4119 2.61682 44.4125 1.8542 44.4131ZM0.00141441 50.8682C0.00141441 48.0981 -0.00277627 45.328 0.00326915 42.5585C1.38348 42.5603 2.76307 42.5585 4.14267 42.5591C5.35429 42.5501 6.555 43.103 7.33032 44.0348C8.0331 44.8573 8.38539 45.9637 8.29601 47.0412C8.23136 47.9144 7.87723 48.7628 7.30435 49.4252C6.54112 50.3219 5.38088 50.8621 4.2025 50.8682C2.80237 50.8688 1.40162 50.8682 0.00141441 50.8682Z" fill="black"/>
<path d="M11.06 50.8682C11.0588 48.0988 11.0588 45.3293 11.06 42.5592C11.6776 42.5592 12.2946 42.5586 12.9122 42.5598C12.9128 45.3293 12.9128 48.0988 12.9122 50.8682C12.2946 50.8688 11.6776 50.8682 11.06 50.8682Z" fill="black"/>
</svg>
