<svg width="100" height="98" viewBox="0 0 100 98" fill="none" xmlns="http://www.w3.org/2000/svg">
<path d="M58.6969 27.1016C60.6331 24.7472 62.5668 22.3912 64.5035 20.038C64.6431 20.151 64.7815 20.2659 64.9205 20.38C63.6823 22.5157 62.4423 24.6506 61.2029 26.7856C61.4639 27.0466 61.7328 27.2992 61.9987 27.5567C62.6786 27.5917 63.339 27.9428 63.7228 28.5096C64.2619 29.2656 64.2485 30.3612 63.6841 31.0996C63.1094 31.9076 61.9594 32.223 61.0513 31.8308C60.9122 31.7812 60.7829 31.6719 60.6276 31.707C59.9309 31.7752 59.2335 31.8363 58.5374 31.9021C58.9652 33.7362 59.3942 35.5701 59.8227 37.4042C59.8462 37.545 59.9635 37.6368 60.0468 37.7438C60.8028 38.6503 61.2168 39.8263 61.2295 41.004C63.1475 41.0034 65.0656 41.004 66.9829 41.004C66.3128 43.3057 65.6378 45.6063 64.9646 47.9074C64.5682 49.2339 63.5421 50.3337 62.2797 50.8836C61.9891 50.3796 61.6851 49.8835 61.3908 49.3813C62.2755 49.0525 63.0291 48.3304 63.3028 47.4149C63.7602 45.8522 64.2165 44.2889 64.674 42.7262H59.3102C59.3634 42.3026 59.4239 41.8808 59.4734 41.4572C59.5925 40.445 59.2413 39.3851 58.532 38.6514C58.4219 38.5306 58.2575 38.4382 58.2412 38.2599C57.6285 35.6264 57.0103 32.9941 56.397 30.3612C58.0303 30.2083 59.6644 30.059 61.2977 29.905C61.4398 30.0204 61.5655 30.1642 61.7358 30.2391C62.0296 30.3539 62.3854 30.111 62.3854 29.7955C62.4043 29.5043 62.1202 29.2499 61.8331 29.2934C61.6912 29.2843 61.5226 29.3701 61.4065 29.2571C60.5037 28.538 59.5979 27.8225 58.6969 27.1016Z" fill="black"/>
<path d="M56.4039 22.8885C57.1677 23.5586 57.9303 24.2312 58.6942 24.9014C58.3297 25.3473 57.9629 25.7909 57.5973 26.2357C57.2106 25.9286 56.8268 25.6181 56.442 25.3086C56.0775 25.6701 55.7168 26.0344 55.353 26.3958C54.449 26.3275 53.496 26.4701 52.7249 26.9711C52.1291 27.3518 51.6989 27.9651 51.5073 28.6426C50.6885 32.0755 49.8642 35.5073 49.0394 38.9391C47.7431 38.9325 46.4469 38.9264 45.1507 38.9185C44.1959 38.8986 43.2188 39.0732 42.3734 39.5326C41.7177 39.8879 41.1787 40.4759 40.9418 41.1901C40.711 41.8965 40.5702 42.6579 40.7073 43.3976C40.8396 44.0611 41.0349 44.7114 41.2579 45.35C41.5412 46.1707 41.6229 47.0766 41.3962 47.9219C41.2216 48.6012 40.8542 49.2206 40.3798 49.7337C41.1654 52.1466 41.9685 54.5541 42.7487 56.9695C42.1432 56.9652 41.5371 56.9676 40.9322 56.9682C40.0704 54.3601 39.2147 51.7502 38.3596 49.1402C38.6498 48.9179 38.9724 48.7298 39.2117 48.4477C39.654 47.9479 39.8619 47.2542 39.7731 46.5931C39.7284 46.1302 39.5326 45.7042 39.4021 45.2637C39.2322 44.7114 39.0794 44.1517 38.9796 43.5819C38.8201 42.5449 39.002 41.482 39.3489 40.5007C38.3488 40.6602 37.391 41.0898 36.6193 41.7479C35.763 42.4682 35.1394 43.4592 34.8626 44.5433C34.5604 45.6831 34.6529 46.9176 35.1067 48.0041C35.3636 48.6048 35.5599 49.255 35.5013 49.9155C35.4312 50.799 34.8191 51.5985 34.0087 51.9405C33.4231 52.1979 32.7385 52.2064 32.1445 51.9701C32.3542 51.4353 32.5753 50.9053 32.7832 50.3699C33.2171 50.5301 33.7386 50.2044 33.7791 49.7451C33.7997 49.1903 33.4836 48.7075 33.3277 48.1927C32.6038 46.0855 32.9488 43.6514 34.2251 41.8258C35.5449 39.8963 37.8526 38.6781 40.1949 38.7192C40.2885 38.7174 40.3985 38.7337 40.4644 38.6485C41.3491 37.8308 42.5359 37.4224 43.7119 37.261C44.3295 37.1674 44.9555 37.1848 45.5786 37.1891C46.2179 37.2108 46.8585 37.18 47.4984 37.2096C47.7884 36.6126 47.9661 35.9696 48.1571 35.3357C48.7106 33.3875 49.159 31.4108 49.5687 29.4281C49.6877 28.88 49.7566 28.3169 49.9615 27.7911C50.3096 26.8424 50.9791 26.0157 51.8366 25.4815C52.6687 24.9546 53.6501 24.6989 54.6284 24.6524C55.2164 24.0608 55.8159 23.4807 56.4039 22.8885Z" fill="black"/>
<path d="M48.4327 43.9916C49.0654 44.2998 49.7199 44.5688 50.4094 44.7198C51.9781 45.0951 53.6357 45.1265 55.2081 44.756C55.5894 44.6654 55.9701 44.5712 56.3514 44.4799C56.3489 45.0449 56.3532 45.61 56.3489 46.175C56.3507 46.2716 56.3411 46.3774 56.4003 46.4614C58.4857 49.9627 60.57 53.4645 62.6554 56.9665C61.9822 56.9689 61.3096 56.9665 60.6371 56.9677C58.7045 53.725 56.7744 50.48 54.8425 47.2373C54.7312 47.05 54.5802 46.8656 54.6128 46.633C52.7999 46.8929 50.9309 46.7321 49.1844 46.1822C48.2943 47.7522 47.4 49.3197 46.5099 50.8897C47.293 52.9158 48.0792 54.9408 48.8624 56.967C48.2424 56.967 47.6224 56.9683 47.0024 56.967C46.1992 54.8949 45.3998 52.8216 44.5942 50.7506C45.8705 48.4961 47.1552 46.2457 48.4327 43.9916Z" fill="black"/>
<path d="M65.6205 65.7607C65.1692 66.5233 64.7262 67.2902 64.2802 68.0558C65.2018 68.0564 66.1233 68.0558 67.0455 68.0558C66.5808 67.292 66.1233 66.5233 65.6544 65.7625C65.646 65.7619 65.6291 65.7613 65.6205 65.7607ZM60.5137 70.8258C62.2111 67.9149 63.908 65.0041 65.6078 62.095C67.3712 65.0047 69.1315 67.9149 70.8924 70.8253C70.1691 70.8264 69.4463 70.8253 68.723 70.8258C68.4916 70.4446 68.2589 70.0639 68.0311 69.6801C66.4654 69.6741 64.8997 69.6795 63.3339 69.6777C63.1079 70.059 62.8874 70.444 62.6625 70.8258C61.9465 70.8253 61.2298 70.8264 60.5137 70.8258Z" fill="black"/>
<path d="M75.2204 62.6317C76.3595 62.3591 77.5687 62.3646 78.7035 62.6564C79.4068 62.8492 80.1043 63.1658 80.6094 63.7073C80.9479 64.059 81.1509 64.5328 81.1654 65.0216C80.5502 65.0277 79.9357 65.0235 79.321 65.0241C79.2655 64.7213 78.9736 64.56 78.715 64.4506C78.1337 64.2174 77.4985 64.1666 76.8785 64.1599C76.2416 64.1768 75.5733 64.2234 75.0041 64.537C74.7997 64.6512 74.5683 64.8724 74.659 65.1298C74.8046 65.4126 75.1527 65.4827 75.4325 65.5649C76.5987 65.8259 77.8056 65.8803 78.9591 66.2049C79.5918 66.3837 80.2426 66.632 80.7006 67.1234C81.2705 67.7258 81.3008 68.7259 80.8161 69.3883C80.2825 70.1334 79.3966 70.5292 78.5301 70.7383C77.3057 71.0126 76.0023 70.9836 74.8046 70.5993C74.1925 70.3938 73.5972 70.0772 73.1658 69.5877C72.86 69.2421 72.6702 68.7918 72.6685 68.3271C73.2782 68.329 73.8885 68.3277 74.4988 68.3277C74.5719 68.645 74.8807 68.8111 75.1599 68.9206C75.8621 69.1816 76.6247 69.2094 77.3656 69.175C77.9203 69.1333 78.4956 69.051 78.9827 68.7641C79.1645 68.6553 79.3616 68.4649 79.2951 68.231C79.2081 67.9767 78.9314 67.8691 78.6981 67.7882C78.0865 67.5983 77.4459 67.5343 76.8157 67.4412C75.8839 67.3041 74.9351 67.1772 74.0595 66.8122C73.622 66.6242 73.1935 66.3583 72.9313 65.9499C72.5433 65.3462 72.6013 64.514 73.0255 63.9436C73.5435 63.2311 74.3882 62.8444 75.2204 62.6317Z" fill="black"/>
<path d="M34.96 64.8071C35.5686 63.6251 36.7669 62.781 38.077 62.5779C38.4783 62.5054 38.8867 62.5302 39.2923 62.5272C40.4664 62.5272 41.6405 62.5266 42.8152 62.5272C42.8152 63.1447 42.8165 63.7617 42.8146 64.3793C41.417 64.3812 40.0198 64.3799 38.622 64.3799C37.9126 64.3805 37.2207 64.7473 36.8055 65.3202C36.4055 65.8604 36.2587 66.582 36.4303 67.234C36.6804 68.2328 37.663 68.9598 38.6825 68.9725C39.4421 68.9731 40.2011 68.9725 40.9607 68.9725C40.9643 68.0528 40.9607 67.1331 40.9625 66.2133C41.5801 66.2127 42.1976 66.2127 42.8152 66.2133C42.8159 67.7507 42.8152 69.288 42.8152 70.8253C41.4187 70.8265 40.0222 70.8247 38.6257 70.8265C37.8516 70.8283 37.0817 70.5975 36.4297 70.1823C35.5577 69.6306 34.9038 68.7423 34.644 67.7434C34.3848 66.7698 34.4905 65.7003 34.96 64.8071Z" fill="black"/>
<path d="M46.9547 62.5271C47.5717 62.5259 48.1893 62.5271 48.8069 62.5271C48.8081 65.2929 48.8081 68.0593 48.8069 70.8258C48.1893 70.8252 47.5717 70.8264 46.9541 70.8252C46.9541 68.0593 46.9541 65.2936 46.9547 62.5271Z" fill="black"/>
<path d="M51.5578 62.5272C54.3273 62.5272 57.0968 62.5265 59.8662 62.5272V64.38C58.7919 64.3806 57.718 64.38 56.6436 64.38C56.6429 66.5288 56.6442 68.6771 56.6429 70.8253C56.0253 70.8253 55.4072 70.8277 54.7896 70.8246C54.7914 68.6765 54.789 66.5288 54.7902 64.3811C53.7128 64.3787 52.6353 64.3811 51.5578 64.38C51.5572 63.7623 51.5566 63.1447 51.5578 62.5272Z" fill="black"/>
<path d="M20.6882 64.4511C20.6882 65.9848 20.6876 67.5191 20.6882 69.0534C21.4103 69.0534 22.1324 69.0522 22.8546 69.0541C23.1531 69.0589 23.4553 69.0262 23.7375 68.9253C24.514 68.6631 25.1189 67.9566 25.253 67.1475C25.4005 66.3685 25.0929 65.5322 24.4941 65.0173C24.0777 64.6542 23.529 64.4505 22.976 64.4511C22.2134 64.4499 21.4508 64.4505 20.6882 64.4511ZM18.8354 70.9062C18.8354 68.1361 18.8312 65.366 18.8373 62.5965C20.2175 62.5983 21.5971 62.5965 22.9767 62.5971C24.1883 62.5881 25.389 63.141 26.1643 64.0728C26.8671 64.8953 27.2194 66.0017 27.13 67.0792C27.0653 67.9524 26.7112 68.8008 26.1383 69.4632C25.3751 70.3599 24.2149 70.9001 23.0365 70.9062C21.6364 70.9068 20.2356 70.9062 18.8354 70.9062Z" fill="black"/>
<path d="M29.894 70.9062C29.8928 68.1368 29.8928 65.3673 29.894 62.5972C30.5116 62.5972 31.1286 62.5966 31.7462 62.5978C31.7468 65.3673 31.7468 68.1368 31.7462 70.9062C31.1286 70.9068 30.5116 70.9062 29.894 70.9062Z" fill="black"/>
</svg>
