<svg width="69" height="40" viewBox="0 0 69 40" fill="none" xmlns="http://www.w3.org/2000/svg">
<path d="M25.3849 12.6225H31.4833L30.6425 14.4938C32.6702 13.4454 34.9491 12.2726 37.3485 12.2726C39.5544 12.2726 40.8617 13.0467 40.9104 14.6681C43.3778 13.2211 45.3273 12.2726 47.9868 12.2726C51.3924 12.2726 51.9243 14.1939 51.1066 16.0152L46.6679 25.8973H40.5695L44.3583 17.4623C44.7838 16.5138 44.9184 15.5653 43.3611 15.5653C42.2255 15.5653 40.831 16.2139 40.2401 16.6638L36.0924 25.8973H29.994L33.7828 17.4623C34.2083 16.5138 34.3429 15.5653 32.7856 15.5653C31.65 15.5653 30.2554 16.2139 29.6646 16.6638L25.5169 25.8973H19.4185L25.3849 12.6225Z" fill="#043D5D"/>
<path d="M53.5286 21.7137C54.1772 23.0864 55.4679 23.535 57.6404 23.535C59.2951 23.535 60.5461 23.0608 60.8037 22.4866C61.0062 22.038 60.9793 21.6624 57.8506 21.2638C54.8719 20.8896 53.4184 20.5153 52.7519 19.6168C52.138 18.8183 52.2072 17.7955 52.5776 16.9713C53.7209 14.4258 57.4315 12.3046 62.0688 12.3046C64.9232 12.3046 67.9634 12.8288 68.5146 14.9244L64.1862 16.5471C64.1131 15.6986 62.3918 15.2 61.0934 15.2C59.7963 15.2 58.6568 15.4243 58.2979 16.2228C58.0519 16.7714 58.5889 16.947 60.6076 17.1456C65.8435 17.6942 67.9417 19.017 66.7753 21.6125C65.5307 24.3823 62.2457 26.2792 55.8242 26.2792C52.5802 26.2792 50.0936 25.605 49.1323 23.4851L53.5286 21.7137Z" fill="#043D5D"/>
<path d="M16.5484 12.6187L14.3925 17.4059L9.92696 17.4072L12.07 12.6302H5.98438L0 25.8896H6.10742L8.47092 20.6525H12.93L10.5806 25.8948H16.6868L22.634 12.6187H16.5484Z" fill="#043D5D"/>
<path d="M23.9415 28.762L18.8325 39.9258H23.7467L28.8338 28.762H23.9415Z" fill="#B72432"/>
<path d="M34.3245 39.9258L39.4116 28.762H34.5193L29.4116 39.9258H34.3245Z" fill="#B72432"/>
<path d="M37.1737 0L32.5762 10.0474H37.5006L42.0661 0H37.1737Z" fill="#B72432"/>
<path d="M47.6796 0L43.082 10.0474H48.0064L52.5719 0H47.6796Z" fill="#B72432"/>
</svg>
