<svg width="100" height="98" viewBox="0 0 100 98" fill="none" xmlns="http://www.w3.org/2000/svg">
<path d="M41.1276 41.5084H47.226L46.3852 43.3797C48.4129 42.3312 50.6918 41.1584 53.0912 41.1584C55.297 41.1584 56.6044 41.9326 56.6531 43.554C59.1204 42.1069 61.0699 41.1584 63.7295 41.1584C67.1351 41.1584 67.667 43.0798 66.8492 44.9011L62.4106 54.7832H56.3122L60.1009 46.3482C60.5265 45.3997 60.6611 44.4512 59.1038 44.4512C57.9682 44.4512 56.5736 45.0998 55.9828 45.5496L51.8351 54.7832H45.7367L49.5254 46.3482C49.951 45.3997 50.0855 44.4512 48.5283 44.4512C47.3926 44.4512 45.9981 45.0998 45.4072 45.5496L41.2596 54.7832H35.1611L41.1276 41.5084Z" fill="#043D5D"/>
<path d="M69.2713 50.5996C69.9199 51.9723 71.2106 52.4209 73.3831 52.4209C75.0378 52.4209 76.2888 51.9467 76.5464 51.3725C76.7489 50.9239 76.722 50.5483 73.5933 50.1497C70.6146 49.7754 69.1611 49.4012 68.4946 48.5027C67.8806 47.7042 67.9499 46.6813 68.3203 45.8572C69.4636 43.3117 73.1742 41.1904 77.8115 41.1904C80.6659 41.1904 83.7061 41.7147 84.2573 43.8103L79.9289 45.4329C79.8558 44.5844 78.1345 44.0858 76.8361 44.0858C75.539 44.0858 74.3995 44.3102 74.0406 45.1087C73.7945 45.6572 74.3316 45.8328 76.3503 46.0315C81.5861 46.5801 83.6843 47.9028 82.518 50.4983C81.2734 53.2681 77.9883 55.1651 71.5669 55.1651C68.3228 55.1651 65.8363 54.4909 64.875 52.3709L69.2713 50.5996Z" fill="#043D5D"/>
<path d="M32.291 41.5045L30.1352 46.2918L25.6696 46.293L27.8127 41.5161H21.7271L15.7427 54.7755H21.8501L24.2136 49.5384H28.6727L26.3233 54.7806H32.4295L38.3767 41.5045H32.291Z" fill="#043D5D"/>
<path d="M39.6842 57.6478L34.5752 68.8117H39.4893L44.5765 57.6478H39.6842Z" fill="#B72432"/>
<path d="M50.0671 68.8117L55.1543 57.6478H50.262L45.1543 68.8117H50.0671Z" fill="#B72432"/>
<path d="M52.9164 28.8859L48.3188 38.9333H53.2432L57.8087 28.8859H52.9164Z" fill="#B72432"/>
<path d="M63.4223 28.8859L58.8247 38.9333H63.7491L68.3146 28.8859H63.4223Z" fill="#B72432"/>
</svg>
