<svg width="100" height="23" viewBox="0 0 100 23" fill="none" xmlns="http://www.w3.org/2000/svg">
<path d="M41.3222 11.1451C40.4823 10.4895 39.2043 10.081 37.5202 9.93602C36.2508 9.83391 35.3534 9.61333 34.8537 9.28043C34.3838 8.96795 34.1563 8.57377 34.1563 8.07748C34.1563 7.54443 34.3668 7.14617 34.7984 6.86024C35.2556 6.55593 35.9424 6.40275 36.8376 6.40275C37.7329 6.40275 38.4494 6.56001 39.0044 6.87045C39.5467 7.17476 39.9698 7.6588 40.2569 8.31031L40.3675 8.56152L42.5406 7.53626L42.4322 7.30752C41.4689 5.27333 39.6338 4.24194 36.9759 4.24194C35.4151 4.24194 34.1626 4.58097 33.2547 5.24882C32.3254 5.93301 31.8534 6.90313 31.8534 8.13058C31.8534 9.22937 32.2701 10.126 33.0931 10.7918C33.8947 11.4412 35.2216 11.8456 37.0354 11.9906C38.2474 12.0927 39.0959 12.3072 39.5615 12.6299C39.9975 12.9342 40.208 13.3937 40.208 14.035C40.208 14.6763 39.9464 15.0828 39.4085 15.3707C38.8279 15.6832 38.0752 15.8405 37.1694 15.8405C35.2811 15.8405 34.0521 15.2053 33.4163 13.8982L33.2993 13.6592L31.124 14.6865L31.2474 14.9214C31.7662 15.8997 32.5296 16.6656 33.5205 17.2007C34.5029 17.7317 35.6575 18.0013 36.9482 18.0013C37.9306 18.0013 38.862 17.844 39.7189 17.5336C40.5886 17.217 41.2946 16.7411 41.8198 16.1162C42.3535 15.481 42.6236 14.709 42.6236 13.8226C42.6236 12.7218 42.1876 11.8211 41.3243 11.1451" fill="#35378E"/>
<path d="M69.5096 5.09973C68.5336 4.52992 67.4279 4.24194 66.2265 4.24194C64.9507 4.24194 63.7939 4.54013 62.7924 5.12628C61.7887 5.71448 60.9934 6.54163 60.4321 7.58528C59.8728 8.62279 59.5879 9.81348 59.5879 11.1206C59.5879 12.4277 59.8771 13.6184 60.447 14.6579C61.019 15.7016 61.8227 16.5287 62.8349 17.1149C63.8471 17.7031 65.0166 18.0013 66.3115 18.0013C67.7107 18.0013 68.9419 17.7276 69.9689 17.1884C70.9981 16.6492 71.838 15.8915 72.4653 14.9418L72.6057 14.7274L70.6621 13.4815L70.5176 13.7144C70.1029 14.3781 69.5458 14.9051 68.8632 15.2768C68.1828 15.6505 67.3046 15.8384 66.2541 15.8384C64.9655 15.8384 63.9768 15.4259 63.2347 14.5803C62.5436 13.792 62.1374 12.8403 62.0247 11.7496H72.5929L72.6163 11.5168C72.6354 11.331 72.6461 11.0634 72.6461 10.7223C72.6461 9.51938 72.3654 8.41447 71.8125 7.43414C71.2597 6.45381 70.4835 5.66751 69.5096 5.09769M62.1715 9.74813C62.3926 8.82907 62.8306 8.04685 63.4813 7.42393C64.1979 6.73566 65.0952 6.40071 66.2265 6.40071C67.3577 6.40071 68.3018 6.70298 68.9653 7.2973C69.5777 7.84874 69.9881 8.67181 70.1858 9.74813H62.1715Z" fill="#35378E"/>
<path d="M84.1496 5.12628C83.1375 4.54013 81.9764 4.24194 80.7027 4.24194C79.429 4.24194 78.2701 4.54013 77.2665 5.12628C76.2628 5.71244 75.4697 6.53551 74.9062 7.57098C74.3469 8.60032 74.062 9.78489 74.062 11.094C74.062 12.4032 74.3512 13.5959 74.9189 14.6436C75.4909 15.6975 76.2947 16.5287 77.3069 17.1149C78.3191 17.7031 79.4801 17.9992 80.7538 17.9992C82.0275 17.9992 83.1842 17.7011 84.19 17.1129C85.1937 16.5267 85.9868 15.6995 86.5503 14.6539C87.1096 13.6143 87.3945 12.4236 87.3945 11.1185C87.3945 9.81348 87.1053 8.62075 86.5354 7.58119C85.9634 6.53755 85.1597 5.7104 84.1475 5.1222M77.0283 13.5755C76.6626 12.8566 76.4776 12.0213 76.4776 11.094C76.4776 10.1668 76.6626 9.36212 77.0283 8.65343C77.3898 7.94881 77.8959 7.39125 78.5317 6.99504C79.1632 6.60086 79.8926 6.40071 80.7006 6.40071C81.5086 6.40071 82.2699 6.60086 82.9121 6.99504C83.5542 7.38921 84.0646 7.95086 84.4282 8.66568C84.7939 9.38663 84.9789 10.2117 84.9789 11.1206C84.9789 12.0294 84.7939 12.8545 84.4282 13.5755C84.0667 14.2883 83.5564 14.8499 82.9121 15.2461C82.2699 15.6403 81.5256 15.8405 80.7006 15.8405C79.8756 15.8405 79.1632 15.6403 78.5317 15.2461C77.8959 14.8499 77.3898 14.2883 77.0283 13.5755Z" fill="#35378E"/>
<path d="M55.0349 5.12628C54.0227 4.54013 52.8617 4.24194 51.588 4.24194C51.3392 4.24194 51.101 4.26237 50.8565 4.28483C50.848 4.28483 50.8395 4.28892 50.8289 4.28892C49.8401 4.38491 48.9385 4.66675 48.1517 5.12628C47.8753 5.28763 47.6159 5.48165 47.3628 5.68793V5.63483L46.8993 6.0964L46.8227 6.17197V6.18422C46.4166 6.60086 46.0679 7.06447 45.7914 7.57302C45.2322 8.60237 44.9473 9.78693 44.9473 11.0961V22.8743H47.3607V16.5247C47.6244 16.7432 47.8987 16.9474 48.1921 17.1149C48.9874 17.5765 49.8954 17.8603 50.8905 17.9563C50.8905 17.9563 50.8927 17.9563 50.8948 17.9563C51.1266 17.9788 51.3754 17.9992 51.639 17.9992C52.9149 17.9992 54.0695 17.701 55.0753 17.1128C56.0789 16.5267 56.8721 15.7036 57.4356 14.6682C57.9927 13.6429 58.2755 12.4645 58.2776 11.1553V11.1185C58.2798 9.8094 57.9906 8.62075 57.4207 7.58119C56.8487 6.53755 56.0449 5.7104 55.0327 5.1222M55.5665 9.26409C55.5984 9.35804 55.6218 9.45607 55.6494 9.5541C55.677 9.65418 55.7089 9.75221 55.7323 9.85637C55.7536 9.9544 55.7642 10.0586 55.7812 10.1586C55.7982 10.2648 55.8195 10.371 55.8323 10.4813C55.8535 10.6917 55.8663 10.9102 55.8663 11.1349C55.8642 12.0396 55.6792 12.8607 55.3156 13.5755C54.9541 14.2883 54.4437 14.8499 53.7994 15.2461C53.1658 15.6342 52.43 15.8343 51.6156 15.8384C50.7991 15.8343 50.0634 15.6342 49.4318 15.2461C48.8194 14.8683 48.3325 14.3373 47.9731 13.6735C47.954 13.6388 47.9327 13.6102 47.9157 13.5755C47.854 13.455 47.8073 13.3284 47.7562 13.2038C47.7243 13.1221 47.6882 13.0445 47.6605 12.9607C47.6265 12.8607 47.601 12.7565 47.5734 12.6544C47.5478 12.5604 47.5181 12.4685 47.4968 12.3705C47.4755 12.2684 47.4628 12.1622 47.4458 12.058C47.4288 11.9559 47.4096 11.8538 47.399 11.7476C47.3777 11.5393 47.3671 11.3248 47.3671 11.1042C47.3692 10.1995 47.5542 9.37642 47.9178 8.66364C48.2793 7.95086 48.7897 7.38921 49.434 6.99299C50.0676 6.6029 50.8012 6.40479 51.6178 6.40071C52.4343 6.40479 53.1679 6.60495 53.8016 6.99299C54.4437 7.38717 54.9541 7.95086 55.3177 8.66364C55.373 8.77392 55.4176 8.89238 55.4665 9.00675C55.5006 9.09049 55.5388 9.17218 55.5707 9.26" fill="#35378E"/>
<path d="M98.6982 11.1451C97.8604 10.4875 96.5824 10.081 94.8962 9.93602C93.6267 9.83391 92.7294 9.61333 92.2297 9.28043C91.7598 8.96795 91.5322 8.57377 91.5322 8.07748C91.5322 7.54443 91.7427 7.14617 92.1744 6.86024C92.6316 6.55593 93.3184 6.40275 94.2136 6.40275C95.1088 6.40275 95.8254 6.56001 96.3804 6.87045C96.9226 7.17476 97.3458 7.6588 97.6329 8.31031L97.7456 8.56152L99.9166 7.53626L99.8082 7.30752C98.8449 5.27333 97.0098 4.24194 94.3518 4.24194C92.7911 4.24194 91.5386 4.58097 90.6306 5.24882C89.7014 5.93301 89.2294 6.90313 89.2294 8.13058C89.2294 9.22937 89.6461 10.126 90.469 10.7918C91.2707 11.4412 92.5976 11.8456 94.4114 11.9906C95.6234 12.0927 96.474 12.3072 96.9375 12.6299C97.3734 12.9342 97.5839 13.3937 97.5839 14.035C97.5839 14.6763 97.3224 15.0828 96.7844 15.3707C96.2039 15.6832 95.4512 15.8405 94.5453 15.8405C92.6571 15.8405 91.428 15.2053 90.7923 13.8982L90.6753 13.6592L88.5 14.6865L88.6233 14.9214C89.1422 15.8997 89.9055 16.6656 90.8964 17.2007C91.8788 17.7317 93.0335 18.0013 94.3242 18.0013C95.3066 18.0013 96.2379 17.844 97.0949 17.5336C97.9646 17.217 98.6705 16.7411 99.1958 16.1162C99.7295 15.481 99.9995 14.709 99.9995 13.8226C99.9995 12.7218 99.5615 11.8211 98.7003 11.1451" fill="#35378E"/>
<path d="M15.5907 7.26465C15.5673 7.26465 15.5418 7.26465 15.5184 7.26465C15.4249 7.26465 15.3334 7.26056 15.2377 7.26056C6.89164 7.25852 0.112699 10.6141 0 14.7764C0.112699 6.60905 7.06175 0 15.5907 0V7.26465Z" fill="#EFBE4B"/>
<path d="M7.56543 14.9787C7.58882 14.9787 7.61434 14.9787 7.63773 14.9787C7.73129 14.9787 7.82272 14.9827 7.91841 14.9827C16.2666 14.9827 23.0413 11.6272 23.1561 7.46484C23.0434 15.6302 16.0965 22.2413 7.56756 22.2413V14.9766L7.56543 14.9787Z" fill="#EFBE4B"/>
<path d="M7.55933 14.6396C7.55933 12.2766 7.8634 10.0443 8.4035 8.06726C3.51493 9.29676 0.133963 11.8027 0.00425278 14.709C0.00425278 14.7989 0 14.8887 0 14.9786H7.56358C7.56358 14.9561 7.56358 14.9316 7.56358 14.9091C7.56358 14.8193 7.55933 14.7315 7.55933 14.6396Z" fill="#35378E"/>
<path d="M15.5971 7.60368C15.5971 9.96668 15.293 12.199 14.7529 14.176C19.6394 12.9465 23.0203 10.4405 23.1501 7.53424C23.1501 7.44438 23.1543 7.35451 23.1543 7.26465H15.5907C15.5907 7.28711 15.5907 7.31162 15.5907 7.33409C15.5907 7.42395 15.595 7.51177 15.595 7.60368" fill="#35378E"/>
</svg>
