<svg width="100" height="98" viewBox="0 0 100 98" fill="none" xmlns="http://www.w3.org/2000/svg">
<path d="M41.3222 48.5567C40.4823 47.9011 39.2043 47.4927 37.5202 47.3476C36.2508 47.2455 35.3534 47.025 34.8537 46.6921C34.3838 46.3796 34.1563 45.9854 34.1563 45.4891C34.1563 44.9561 34.3668 44.5578 34.7984 44.2719C35.2556 43.9676 35.9424 43.8144 36.8376 43.8144C37.7329 43.8144 38.4494 43.9716 39.0044 44.2821C39.5467 44.5864 39.9698 45.0704 40.2569 45.7219L40.3675 45.9731L42.5406 44.9479L42.4322 44.7191C41.4689 42.685 39.6338 41.6536 36.9759 41.6536C35.4151 41.6536 34.1626 41.9926 33.2547 42.6604C32.3254 43.3446 31.8534 44.3148 31.8534 45.5422C31.8534 46.641 32.2701 47.5376 33.0931 48.2034C33.8947 48.8529 35.2216 49.2572 37.0354 49.4023C38.2474 49.5044 39.0959 49.7188 39.5615 50.0415C39.9975 50.3458 40.208 50.8053 40.208 51.4466C40.208 52.0879 39.9464 52.4944 39.4085 52.7823C38.8279 53.0948 38.0752 53.2521 37.1694 53.2521C35.2811 53.2521 34.0521 52.6169 33.4163 51.3098L33.2993 51.0709L31.124 52.0982L31.2474 52.333C31.7662 53.3113 32.5296 54.0772 33.5205 54.6123C34.5029 55.1433 35.6575 55.4129 36.9482 55.4129C37.9306 55.4129 38.862 55.2556 39.7189 54.9452C40.5886 54.6286 41.2946 54.1528 41.8198 53.5278C42.3535 52.8926 42.6236 52.1206 42.6236 51.2342C42.6236 50.1334 42.1876 49.2327 41.3243 48.5567" fill="#35378E"/>
<path d="M69.5096 42.5114C68.5336 41.9415 67.4279 41.6536 66.2265 41.6536C64.9507 41.6536 63.7939 41.9517 62.7924 42.5379C61.7887 43.1261 60.9934 43.9533 60.4321 44.9969C59.8728 46.0344 59.5879 47.2251 59.5879 48.5322C59.5879 49.8393 59.8771 51.03 60.447 52.0696C61.019 53.1132 61.8227 53.9404 62.8349 54.5265C63.8471 55.1147 65.0166 55.4129 66.3115 55.4129C67.7107 55.4129 68.9419 55.1392 69.9689 54.6C70.9981 54.0609 71.838 53.3031 72.4653 52.3535L72.6057 52.139L70.6621 50.8932L70.5176 51.126C70.1029 51.7898 69.5458 52.3167 68.8632 52.6884C68.1828 53.0621 67.3046 53.25 66.2541 53.25C64.9655 53.25 63.9768 52.8375 63.2347 51.992C62.5436 51.2036 62.1374 50.2519 62.0247 49.1613H72.5929L72.6163 48.9284C72.6354 48.7426 72.6461 48.475 72.6461 48.134C72.6461 46.931 72.3654 45.8261 71.8125 44.8458C71.2597 43.8654 70.4835 43.0791 69.5096 42.5093M62.1715 47.1597C62.3926 46.2407 62.8306 45.4585 63.4813 44.8356C64.1979 44.1473 65.0952 43.8123 66.2265 43.8123C67.3577 43.8123 68.3018 44.1146 68.9653 44.7089C69.5777 45.2604 69.9881 46.0834 70.1858 47.1597H62.1715Z" fill="#35378E"/>
<path d="M84.1496 42.5379C83.1375 41.9517 81.9764 41.6536 80.7027 41.6536C79.429 41.6536 78.2701 41.9517 77.2665 42.5379C76.2628 43.1241 75.4697 43.9471 74.9062 44.9826C74.3469 46.0119 74.062 47.1965 74.062 48.5057C74.062 49.8148 74.3512 51.0075 74.9189 52.0553C75.4909 53.1091 76.2947 53.9404 77.3069 54.5265C78.3191 55.1147 79.4801 55.4109 80.7538 55.4109C82.0275 55.4109 83.1842 55.1127 84.19 54.5245C85.1937 53.9383 85.9868 53.1112 86.5503 52.0655C87.1096 51.0259 87.3945 49.8352 87.3945 48.5302C87.3945 47.2251 87.1053 46.0324 86.5354 44.9928C85.9634 43.9492 85.1597 43.122 84.1475 42.5338M77.0283 50.9871C76.6626 50.2682 76.4776 49.4329 76.4776 48.5057C76.4776 47.5784 76.6626 46.7737 77.0283 46.065C77.3898 45.3604 77.8959 44.8029 78.5317 44.4067C79.1632 44.0125 79.8926 43.8123 80.7006 43.8123C81.5086 43.8123 82.2699 44.0125 82.9121 44.4067C83.5542 44.8008 84.0646 45.3625 84.4282 46.0773C84.7939 46.7983 84.9789 47.6234 84.9789 48.5322C84.9789 49.4411 84.7939 50.2662 84.4282 50.9871C84.0667 51.6999 83.5564 52.2615 82.9121 52.6578C82.2699 53.0519 81.5256 53.2521 80.7006 53.2521C79.8756 53.2521 79.1632 53.0519 78.5317 52.6578C77.8959 52.2615 77.3898 51.6999 77.0283 50.9871Z" fill="#35378E"/>
<path d="M55.0349 42.5379C54.0227 41.9517 52.8617 41.6536 51.588 41.6536C51.3392 41.6536 51.101 41.674 50.8565 41.6965C50.848 41.6965 50.8395 41.7005 50.8289 41.7005C49.8401 41.7965 48.9385 42.0784 48.1517 42.5379C47.8753 42.6992 47.6159 42.8933 47.3628 43.0996V43.0464L46.8993 43.508L46.8227 43.5836V43.5958C46.4166 44.0125 46.0679 44.4761 45.7914 44.9846C45.2322 46.014 44.9473 47.1986 44.9473 48.5077V60.2859H47.3607V53.9363C47.6244 54.1548 47.8987 54.359 48.1921 54.5265C48.9874 54.9881 49.8954 55.272 50.8905 55.368C50.8905 55.368 50.8927 55.368 50.8948 55.368C51.1266 55.3904 51.3754 55.4109 51.639 55.4109C52.9149 55.4109 54.0695 55.1127 55.0753 54.5245C56.0789 53.9383 56.8721 53.1152 57.4356 52.0798C57.9927 51.0545 58.2755 49.8761 58.2776 48.5669V48.5302C58.2798 47.221 57.9906 46.0324 57.4207 44.9928C56.8487 43.9492 56.0449 43.122 55.0327 42.5338M55.5665 46.6757C55.5984 46.7697 55.6218 46.8677 55.6494 46.9657C55.677 47.0658 55.7089 47.1638 55.7323 47.268C55.7536 47.366 55.7642 47.4702 55.7812 47.5703C55.7982 47.6765 55.8195 47.7827 55.8323 47.893C55.8535 48.1033 55.8663 48.3218 55.8663 48.5465C55.8642 49.4513 55.6792 50.2723 55.3156 50.9871C54.9541 51.6999 54.4437 52.2615 53.7994 52.6578C53.1658 53.0458 52.43 53.246 51.6156 53.25C50.7991 53.246 50.0634 53.0458 49.4318 52.6578C48.8194 52.2799 48.3325 51.7489 47.9731 51.0851C47.954 51.0504 47.9327 51.0218 47.9157 50.9871C47.854 50.8666 47.8073 50.74 47.7562 50.6154C47.7243 50.5337 47.6882 50.4561 47.6605 50.3724C47.6265 50.2723 47.601 50.1681 47.5734 50.066C47.5478 49.9721 47.5181 49.8802 47.4968 49.7821C47.4755 49.68 47.4628 49.5738 47.4458 49.4696C47.4288 49.3675 47.4096 49.2654 47.399 49.1592C47.3777 48.9509 47.3671 48.7364 47.3671 48.5159C47.3692 47.6111 47.5542 46.788 47.9178 46.0753C48.2793 45.3625 48.7897 44.8008 49.434 44.4046C50.0676 44.0145 50.8012 43.8164 51.6178 43.8123C52.4343 43.8164 53.1679 44.0166 53.8016 44.4046C54.4437 44.7988 54.9541 45.3625 55.3177 46.0753C55.373 46.1855 55.4176 46.304 55.4665 46.4184C55.5006 46.5021 55.5388 46.5838 55.5707 46.6716" fill="#35378E"/>
<path d="M98.6982 48.5567C97.8604 47.8991 96.5824 47.4927 94.8962 47.3476C93.6267 47.2455 92.7294 47.025 92.2297 46.6921C91.7598 46.3796 91.5322 45.9854 91.5322 45.4891C91.5322 44.9561 91.7427 44.5578 92.1744 44.2719C92.6316 43.9676 93.3184 43.8144 94.2136 43.8144C95.1088 43.8144 95.8254 43.9716 96.3804 44.2821C96.9226 44.5864 97.3458 45.0704 97.6329 45.7219L97.7456 45.9731L99.9166 44.9479L99.8082 44.7191C98.8449 42.685 97.0098 41.6536 94.3518 41.6536C92.7911 41.6536 91.5386 41.9926 90.6306 42.6604C89.7014 43.3446 89.2294 44.3148 89.2294 45.5422C89.2294 46.641 89.6461 47.5376 90.469 48.2034C91.2707 48.8529 92.5976 49.2572 94.4114 49.4023C95.6234 49.5044 96.474 49.7188 96.9375 50.0415C97.3734 50.3458 97.5839 50.8053 97.5839 51.4466C97.5839 52.0879 97.3224 52.4944 96.7844 52.7823C96.2039 53.0948 95.4512 53.2521 94.5453 53.2521C92.6571 53.2521 91.428 52.6169 90.7923 51.3098L90.6753 51.0709L88.5 52.0982L88.6233 52.333C89.1422 53.3113 89.9055 54.0772 90.8964 54.6123C91.8788 55.1433 93.0335 55.4129 94.3242 55.4129C95.3066 55.4129 96.2379 55.2556 97.0949 54.9452C97.9646 54.6286 98.6705 54.1528 99.1958 53.5278C99.7295 52.8926 99.9995 52.1206 99.9995 51.2342C99.9995 50.1334 99.5615 49.2327 98.7003 48.5567" fill="#35378E"/>
<path d="M15.5907 44.6763C15.5673 44.6763 15.5418 44.6763 15.5184 44.6763C15.4249 44.6763 15.3334 44.6722 15.2377 44.6722C6.89164 44.6701 0.112699 48.0257 0 52.188C0.112699 44.0207 7.06175 37.4116 15.5907 37.4116V44.6763Z" fill="#EFBE4B"/>
<path d="M7.56543 52.3903C7.58882 52.3903 7.61434 52.3903 7.63773 52.3903C7.73129 52.3903 7.82272 52.3944 7.91841 52.3944C16.2666 52.3944 23.0413 49.0388 23.1561 44.8765C23.0434 53.0418 16.0965 59.6529 7.56756 59.6529V52.3882L7.56543 52.3903Z" fill="#EFBE4B"/>
<path d="M7.55933 52.0512C7.55933 49.6882 7.8634 47.4559 8.4035 45.4789C3.51493 46.7084 0.133963 49.2143 0.00425278 52.1206C0.00425278 52.2105 0 52.3003 0 52.3902H7.56358C7.56358 52.3677 7.56358 52.3432 7.56358 52.3208C7.56358 52.2309 7.55933 52.1431 7.55933 52.0512Z" fill="#35378E"/>
<path d="M15.5971 45.0153C15.5971 47.3783 15.293 49.6106 14.7529 51.5876C19.6394 50.3581 23.0203 47.8521 23.1501 44.9459C23.1501 44.856 23.1543 44.7661 23.1543 44.6763H15.5907C15.5907 44.6987 15.5907 44.7232 15.5907 44.7457C15.5907 44.8356 15.595 44.9234 15.595 45.0153" fill="#35378E"/>
</svg>
